# Exported from ProBuilder
# http://www.procore3d.com/probuilder
# 3/1/2018 5:42:55 PM

mtllib ./Ext_14_Low_corner.mtl
o Ext 14 Low corner

g Ext 14 Low corner
v 8.520848 0.06999999 -4.321485
v 6.219795 0.06999999 -5.925023
v 8.520848 1.07 -3.290254
v 6.576268 1.07 -4.831629
v 6.219795 0.06999999 -5.925023
v 7.068936 0.06999999 -6.541819
v 6.576268 1.07 -4.831629
v 7.465663 1.07 -5.388657
v 7.068936 0.06999999 -6.541819
v 9.382112 0.06999999 -4.872561
v 7.465663 1.07 -5.388657
v 9.671173 1.07 -3.803911
v 9.382112 0.06999999 -4.872561
v 8.520848 0.06999999 -4.321485
v 9.671173 1.07 -3.803911
v 8.520848 1.07 -3.290254
v 8.520848 1.07 -3.290254
v 6.576268 1.07 -4.831629
v 9.671173 1.07 -3.803911
v 7.465663 1.07 -5.388657
v 9.382112 0.06999999 -4.872561
v 7.068936 0.06999999 -6.541819
v 8.520848 0.06999999 -4.321485
v 6.219795 0.06999999 -5.925023

vn -0.476745 -0.5987369 0.6436057
vn -0.4698715 -0.5697334 0.6742585
vn -0.4831327 -0.6285499 0.6095143
vn -0.476745 -0.5987369 0.6436057
vn -0.3686966 0.7522419 -0.5460722
vn -0.3825646 0.7591159 -0.5266756
vn -0.3542418 0.7447129 -0.5656108
vn -0.3686966 0.7522419 -0.5460722
vn 0.4784848 0.5740718 -0.66445
vn 0.479974 0.5720438 -0.6651248
vn 0.4769227 0.5761902 -0.6637391
vn 0.4784848 0.5740718 -0.66445
vn 0.3315238 -0.7055392 0.6263437
vn 0.4068908 -0.6557795 0.6359191
vn 0.2751377 -0.7379971 0.6161653
vn 0.3315238 -0.7055392 0.6263437
vn 0 1 0
vn 0 1 0
vn 0 1 0
vn 0 1 0
vn 0 -1 0
vn 0 -1 0
vn 0 -1 0
vn 0 -1 0

vt -0.8444825 -0.5840383
vt -3.649153 -0.5840383
vt -0.2548881 0.7258532
vt -2.731555 0.627154
vt 2.78459 0.01844181
vt 2.662635 -1.023961
vt 1.353509 0.5424542
vt 1.179054 -0.4912325
vt 3.335912 -1.058757
vt 0.4833339 -1.058757
vt 2.339401 0.1635944
vt -0.3764156 0.1604156
vt -0.5659987 -1.644043
vt -0.7270153 -0.6343237
vt 0.817812 -1.086694
vt 0.4873208 0.1221393
vt 0.2611446 -0.01243513
vt 2.726087 0.2726725
vt -0.1890479 -1.189048
vt 2.491068 -0.7501026
vt -0.7709991 -1.740301
vt -3.587004 -1.284983
vt -0.9903347 -0.7416258
vt -3.751298 -0.2484094

g Ext 14 Low corner
usemtl Default_Prototype
f 3/3/3 4/4/4 2/2/2 1/1/1
f 7/7/7 8/8/8 6/6/6 5/5/5
f 11/11/11 12/12/12 10/10/10 9/9/9
f 15/15/15 16/16/16 14/14/14 13/13/13
f 19/19/19 20/20/20 18/18/18 17/17/17
f 23/23/23 24/24/24 22/22/22 21/21/21

