# Exported from ProBuilder
# http://www.procore3d.com/probuilder
# 4/27/2018 3:30:12 PM

mtllib ./Ext_8_Right_box.mtl
o Ext 8 Right box

g Ext 8 Right box
v -7.245137 0.04000002 0.1033414
v -8.238027 0.04000002 0.3453532
v -7.618212 1.400592 0.4581654
v -8.711006 1.400592 0.4424601
v -8.238027 0.04000002 0.3453532
v -8.270136 0.04000002 -1.984028
v -8.711006 1.400592 0.4424601
v -8.80294 1.400592 -1.617987
v -8.270136 0.04000002 -1.984028
v -7.246488 0.04000002 -1.905882
v -8.80294 1.400592 -1.617987
v -7.702451 1.400592 -1.522576
v -7.246488 0.04000002 -1.905882
v -7.245137 0.04000002 0.1033414
v -7.702451 1.400592 -1.522576
v -7.618212 1.400592 0.4581654
v -7.618212 1.400592 0.4581654
v -8.711006 1.400592 0.4424601
v -7.702451 1.400592 -1.522576
v -8.80294 1.400592 -1.617987
v -7.246488 0.04000002 -1.905882
v -8.270136 0.04000002 -1.984028
v -7.245137 0.04000002 0.1033414
v -8.238027 0.04000002 0.3453532

vn 0.1069498 -0.1304467 0.98567
vn 0.2367918 0.01298038 0.9714737
vn -0.01389183 -0.2558872 0.9666069
vn 0.1069498 -0.1304467 0.98567
vn -0.9361792 -0.3505262 0.02645359
vn -0.929898 -0.367594 0.01281826
vn -0.9427838 -0.3307404 0.04206541
vn -0.9361792 -0.3505262 0.02645359
vn 0.07791337 0.2909015 -0.9535753
vn 0.07277864 0.292967 -0.9533486
vn 0.08268949 0.2889713 -0.9537598
vn 0.07791337 0.2909015 -0.9535753
vn 0.9548272 0.2964544 -0.02048217
vn 0.9643588 0.2645972 -0.0006485178
vn 0.9439473 0.327646 -0.0401448
vn 0.9548272 0.2964544 -0.02048217
vn 0 1 0
vn 0 1 0
vn 0 1 0
vn 0 1 0
vn 0 -1 0
vn 0 -1 0
vn 0 -1 0
vn 0 -1 0

vt 0.5116144 -0.4811512
vt -0.5103444 -0.4811512
vt 0.06512418 0.9033857
vt -0.9928668 0.8526392
vt 1.100336 -0.5530578
vt -1.229266 -0.5530578
vt 1.190915 0.8878258
vt -0.8706037 0.9087354
vt 0.3807475 -0.9946941
vt -0.645879 -0.9946941
vt 0.8841434 0.4250484
vt -0.2204159 0.4282951
vt 1.146768 -0.8790222
vt -0.862456 -0.8790222
vt 0.763769 0.5560204
vt -1.217029 0.5296634
vt -0.2228292 1.250252
vt 0.8610835 1.110328
vt -0.3644746 -0.7272142
vt 0.718016 -0.9472014
vt 0.8610834 -1.05616
vt -0.1470288 -1.250252
vt 0.6338489 0.9401735
vt -0.3801269 1.067659

g Ext 8 Right box
usemtl Blanc_fosc
f 3/3/3 4/4/4 2/2/2 1/1/1
f 7/7/7 8/8/8 6/6/6 5/5/5
f 11/11/11 12/12/12 10/10/10 9/9/9
f 15/15/15 16/16/16 14/14/14 13/13/13
f 19/19/19 20/20/20 18/18/18 17/17/17
f 23/23/23 24/24/24 22/22/22 21/21/21

