# Exported from ProBuilder
# http://www.procore3d.com/probuilder
# 3/1/2018 5:42:49 PM

mtllib ./Ext_13_Low_box.mtl
o Ext 13 Low box

g Ext 13 Low box
v 6 0.06999999 -4.903881
v 4.960973 0.06999999 -4.893264
v 6.038523 1.07 -4.55
v 5.087133 1.07 -4.55
v 4.960973 0.06999999 -4.893264
v 4.944585 0.06999999 -5.37306
v 5.087133 1.07 -4.55
v 5.087133 1.07 -5.128551
v 4.944585 0.06999999 -5.37306
v 6.021127 0.06999999 -5.360907
v 5.087133 1.07 -5.128551
v 6.032724 1.07 -5.128551
v 6.021127 0.06999999 -5.360907
v 6 0.06999999 -4.903881
v 6.032724 1.07 -5.128551
v 6.038523 1.07 -4.55
v 6.038523 1.07 -4.55
v 5.087133 1.07 -4.55
v 6.032724 1.07 -5.128551
v 5.087133 1.07 -5.128551
v 6.021127 0.06999999 -5.360907
v 4.944585 0.06999999 -5.37306
v 6 0.06999999 -4.903881
v 4.960973 0.06999999 -4.893264

vn 0.005035976 -0.3295148 0.9441369
vn 0.009660186 -0.3257436 0.9454088
vn 0 -0.3336077 0.9427119
vn 0.005035976 -0.3295148 0.9441369
vn -0.9915636 0.1287084 0.01535384
vn -0.9905481 0.1329282 0.03383325
vn -0.9921355 0.125168 0
vn -0.9915636 0.1287084 0.01535384
vn 0.005846464 0.2315001 -0.9728174
vn 0.01099535 0.2261917 -0.9740208
vn 0 0.2375116 -0.9713848
vn 0.005846464 0.2315001 -0.9728174
vn 0.9994588 -0.02938247 0.01479379
vn 0.9974353 -0.05474104 0.04610906
vn 0.9999069 -0.009266918 -0.01002206
vn 0.9994588 -0.02938247 0.01479379
vn 0 1 0
vn 0 1 0
vn 0 1 0
vn 0 1 0
vn 0 -1 0
vn 0 -1 0
vn 0 -1 0
vn 0 -1 0

vt 0.003615766 -0.1181625
vt -1.035466 -0.1181625
vt 0.03852071 0.9427322
vt -0.9128194 0.9394862
vt -0.3785325 -0.1166625
vt -0.8586077 -0.1166625
vt -0.0311618 0.8898564
vt -0.6093759 0.8921005
vt 1.064638 -0.1914356
vt -0.01197245 -0.1914356
vt 0.9193395 0.837638
vt -0.02619119 0.8351187
vt 0.8110175 -0.0003645577
vt 0.3535034 -0.0003645577
vt 0.5794452 0.9998844
vt 0.001778914 1.00061
vt -0.03852272 0
vt 0.9128671 0
vt -0.0327239 -0.5785513
vt 0.9128671 -0.5785513
vt 0.02112722 -0.8109069
vt -1.055415 -0.8230596
vt 0 -0.3538809
vt -1.039027 -0.3432641

g Ext 13 Low box
usemtl Default_Prototype
f 3/3/3 4/4/4 2/2/2 1/1/1
f 7/7/7 8/8/8 6/6/6 5/5/5
f 11/11/11 12/12/12 10/10/10 9/9/9
f 15/15/15 16/16/16 14/14/14 13/13/13
f 19/19/19 20/20/20 18/18/18 17/17/17
f 23/23/23 24/24/24 22/22/22 21/21/21

