# Exported from ProBuilder
# http://www.procore3d.com/probuilder
# 3/13/2018 12:49:31 PM

mtllib ./Ext_21_Outside_Door_Down.mtl
o Ext 21 Outside Door Down

g Ext 21 Outside Door Down
v -2.211175 0.01771975 -5.357418
v -2.37507 1.216938 -4.793933
v -2.211176 0.01771975 -4.324929
v -2.375071 1.216938 -4.098844
v -2.302914 1.2 -4.793933
v -2.111175 0.01771975 -5.357418
v -2.302915 1.2 -4.123084
v -2.111176 0.01771975 -4.324929
v -2.211176 0.01771975 -4.324929
v -2.111176 0.01771975 -4.324929
v -2.211175 0.01771975 -5.357418
v -2.111175 0.01771975 -5.357418
v -2.37507 1.216938 -4.793933
v -2.279503 1.433013 -4.690286
v -2.375071 1.216938 -4.098844
v -2.279504 1.433013 -3.990784
v -2.229503 1.34641 -4.690286
v -2.302914 1.2 -4.793933
v -2.229504 1.34641 -3.990783
v -2.302915 1.2 -4.123084
v -2.279503 1.433013 -4.690286
v -1.60652 1.5 -4.598703
v -2.279504 1.433013 -3.990784
v -1.606521 1.5 -3.924484
v -1.60652 1.4 -4.598703
v -2.229503 1.34641 -4.690286
v -1.606521 1.4 -3.904903
v -2.229504 1.34641 -3.990783
v -1.60652 1.5 -4.598703
v -1.027234 1.433013 -4.716852
v -1.606521 1.5 -3.924484
v -1.027234 1.433013 -4.045825
v -1.077234 1.34641 -4.716852
v -1.60652 1.4 -4.598703
v -1.077234 1.34641 -4.045825
v -1.606521 1.4 -3.904903
v -1.027234 1.433013 -4.716852
v -0.8442204 1.25 -4.907195
v -1.027234 1.433013 -4.045825
v -0.844221 1.25 -4.203283
v -0.9308228 1.2 -4.907195
v -1.077234 1.34641 -4.716852
v -0.9308237 1.2 -4.203283
v -1.077234 1.34641 -4.045825
v -0.8442204 1.25 -4.907195
v -0.9958336 0.01771975 -5.337835
v -0.844221 1.25 -4.203283
v -0.9958346 0.01771975 -4.305346
v -1.095834 0.01771975 -5.337835
v -0.9308228 1.2 -4.907195
v -1.095835 0.01771975 -4.305347
v -0.9308237 1.2 -4.203283
v -1.095835 0.01771975 -4.305347
v -0.9958346 0.01771975 -4.305346
v -1.095834 0.01771975 -5.337835
v -0.9958336 0.01771975 -5.337835
v -2.211176 0.01771975 -4.324929
v -2.375071 1.216938 -4.098844
v -2.111176 0.01771975 -4.324929
v -2.302915 1.2 -4.123084
v -2.37507 1.216938 -4.793933
v -2.211175 0.01771975 -5.357418
v -2.302914 1.2 -4.793933
v -2.111175 0.01771975 -5.357418
v -2.375071 1.216938 -4.098844
v -2.279504 1.433013 -3.990784
v -2.302915 1.2 -4.123084
v -2.229504 1.34641 -3.990783
v -2.279503 1.433013 -4.690286
v -2.37507 1.216938 -4.793933
v -2.229503 1.34641 -4.690286
v -2.302914 1.2 -4.793933
v -2.279504 1.433013 -3.990784
v -1.606521 1.5 -3.924484
v -2.229504 1.34641 -3.990783
v -1.606521 1.4 -3.904903
v -1.60652 1.5 -4.598703
v -2.279503 1.433013 -4.690286
v -1.60652 1.4 -4.598703
v -2.229503 1.34641 -4.690286
v -1.606521 1.5 -3.924484
v -1.027234 1.433013 -4.045825
v -1.606521 1.4 -3.904903
v -1.077234 1.34641 -4.045825
v -1.027234 1.433013 -4.716852
v -1.60652 1.5 -4.598703
v -1.077234 1.34641 -4.716852
v -1.60652 1.4 -4.598703
v -1.027234 1.433013 -4.045825
v -0.844221 1.25 -4.203283
v -1.077234 1.34641 -4.045825
v -0.9308237 1.2 -4.203283
v -0.8442204 1.25 -4.907195
v -1.027234 1.433013 -4.716852
v -0.9308228 1.2 -4.907195
v -1.077234 1.34641 -4.716852
v -0.844221 1.25 -4.203283
v -0.9958346 0.01771975 -4.305346
v -0.9308237 1.2 -4.203283
v -1.095835 0.01771975 -4.305347
v -0.9958336 0.01771975 -5.337835
v -0.8442204 1.25 -4.907195
v -1.095834 0.01771975 -5.337835
v -0.9308228 1.2 -4.907195

vn -0.9907898 -0.1354093 -1.103811E-06
vn -0.9907899 -0.1354088 -1.133128E-06
vn -0.9907897 -0.1354096 -1.084075E-06
vn -0.9907898 -0.1354093 -1.103811E-06
vn 0.9871031 0.1600853 1.100288E-06
vn 0.9871032 0.1600852 1.081734E-06
vn 0.9871032 0.1600855 1.128846E-06
vn 0.9871031 0.1600853 1.100288E-06
vn 0 -1 0
vn 0 -1 0
vn 0 -0.9999999 0
vn 0 -1 0
vn -0.9145429 0.4044889 -1.045541E-06
vn -0.9145429 0.4044889 -1.045571E-06
vn -0.9145429 0.4044889 -1.045512E-06
vn -0.9145429 0.4044889 -1.045541E-06
vn 0.893925 -0.4482166 1.022147E-06
vn 0.893925 -0.4482166 1.022425E-06
vn 0.893925 -0.4482166 1.021881E-06
vn 0.893925 -0.4482166 1.022147E-06
vn -0.09904835 0.9950826 -1.132095E-07
vn -0.09904835 0.9950827 -1.131923E-07
vn -0.09904834 0.9950826 -1.132261E-07
vn -0.09904835 0.9950826 -1.132095E-07
vn 0.08570478 -0.9963205 9.77852E-08
vn 0.08570477 -0.9963205 9.759195E-08
vn 0.08570478 -0.9963205 9.798001E-08
vn 0.08570478 -0.9963205 9.77852E-08
vn 0.1148721 0.9933802 1.295403E-07
vn 0.1148721 0.9933803 1.277113E-07
vn 0.114872 0.9933802 1.313606E-07
vn 0.1148721 0.9933802 1.295403E-07
vn -0.1007342 -0.9949134 -1.134614E-07
vn -0.1007342 -0.9949133 -1.150265E-07
vn -0.1007341 -0.9949134 -1.118432E-07
vn -0.1007342 -0.9949134 -1.134614E-07
vn 0.7071061 0.7071075 7.852746E-07
vn 0.7071061 0.7071075 7.854535E-07
vn 0.7071061 0.7071075 7.850869E-07
vn 0.7071061 0.7071075 7.852746E-07
vn -0.7071061 -0.7071074 -7.930198E-07
vn -0.7071058 -0.7071078 -7.848692E-07
vn -0.7071065 -0.7071071 -8.007897E-07
vn -0.7071061 -0.7071074 -7.930198E-07
vn 0.9925162 -0.1221143 1.107288E-06
vn 0.9925161 -0.1221142 1.110209E-06
vn 0.992516 -0.1221143 1.103002E-06
vn 0.9925162 -0.1221143 1.107288E-06
vn -0.9904 0.1382305 -1.113117E-06
vn -0.9904001 0.1382306 -1.121616E-06
vn -0.9904001 0.1382304 -1.107323E-06
vn -0.9904 0.1382305 -1.113117E-06
vn 0 -1 0
vn 0 -1 0
vn 0 -1 0
vn 0 -1 0
vn 0.3874076 -0.4992184 0.1937619
vn 0.7203313 -0.3521857 0.1493929
vn -2.338053E-07 -0.5639468 0.2064528
vn 0.3874076 -0.4992184 0.1937619
vn 0.0869409 0.8836638 -0.1149944
vn 1.32985E-07 0.8828213 -0.1174272
vn 0.2051165 0.8738061 -0.110224
vn 0.0869409 0.8836638 -0.1149944
vn -0.4003647 -0.8319954 0.09601118
vn -0.7922697 -0.4574175 0.1009564
vn 0.1110784 -0.9616833 0.0626633
vn -0.4003647 -0.8319954 0.09601118
vn 0.5862445 0.6916473 -0.1054571
vn 0.1993862 0.8493944 -0.1221612
vn 0.8224226 0.4748263 -0.07832581
vn 0.5862445 0.6916473 -0.1054571
vn -0.430639 0.2487591 0.2168908
vn -0.348332 0.5779979 0.1844894
vn -0.4491476 -0.2593156 0.2137491
vn -0.430639 0.2487591 0.2168908
vn 0.4789895 0.1283448 -0.2170964
vn 0.4424893 0.2554712 -0.2149032
vn 0.5068839 0 -0.215503
vn 0.4789895 0.1283448 -0.2170964
vn 0.6893378 0.1154783 0.178795
vn 0.5817935 -0.3358982 0.1851844
vn 0.6693195 0.4581298 0.1462301
vn 0.6893378 0.1154783 0.178795
vn -0.6288537 0.1685008 -0.1897621
vn -0.6321449 0 -0.1937132
vn -0.6042822 0.3488823 -0.1790824
vn -0.6288537 0.1685008 -0.1897621
vn 0.6632027 -0.6632034 0.08671988
vn 0.4647278 -0.804934 0.09223302
vn 0.8254099 -0.4765502 0.07566392
vn 0.6632027 -0.6632034 0.08671988
vn -0.6761696 0.676169 -0.07314018
vn -0.8228048 0.4750462 -0.07799263
vn -0.483594 0.8376087 -0.06351652
vn -0.6761696 0.676169 -0.07314018
vn 0.08827792 -0.3294592 0.2350085
vn -2.687566E-07 -0.3144909 0.2373151
vn 0.1989363 -0.3445688 0.2293603
vn 0.08827792 -0.3294592 0.2350085
vn -0.2166879 0.8086915 -0.1367172
vn -0.4333546 0.750592 -0.124704
vn 1.602145E-07 0.8244841 -0.1414713
vn -0.2166879 0.8086915 -0.1367172

vt -0.5096705 -0.9663036
vt 1.744269 0.2440623
vt 3.620285 -0.9663036
vt 4.524627 0.2440623
vt -1.744269 0.2202989
vt 0.5096705 -0.9774282
vt -4.427664 0.2202989
vt -3.620285 -0.9774283
vt -0.05117454 3.620285
vt 0.04882549 3.620285
vt -0.05117517 -0.5096705
vt 0.04882489 -0.5096705
vt 1.744269 0.1114059
vt 2.158859 0.3476712
vt 4.524627 0.1114059
vt 4.956866 0.3476712
vt -2.158859 0.2785125
vt -1.744269 0.114729
vt -4.956866 0.2785125
vt -4.427664 0.114729
vt 0.07602589 2.158859
vt -0.600283 2.525187
vt 0.07602601 4.956866
vt -0.6002829 5.222061
vt 0.585726 2.525187
vt -0.03955794 2.158859
vt 0.5857258 5.300385
vt -0.03955806 4.956866
vt -0.4923806 2.525187
vt -1.075527 2.052588
vt -0.4923805 5.222061
vt -1.075528 4.736697
vt 1.042364 2.052588
vt 0.5103715 2.525187
vt 1.042364 4.736697
vt 0.5103714 5.300385
vt -0.4948021 2.052588
vt -0.7536213 1.291214
vt -0.4948023 4.736697
vt -0.7536215 4.106863
vt 0.7277397 1.291214
vt 0.5206842 2.052588
vt 0.7277397 4.106863
vt 0.5206844 4.736697
vt -1.291214 0.4088044
vt 0.4313468 -0.8327677
vt -4.106863 0.4088044
vt -3.698608 -0.8327677
vt -0.4313468 -0.8257502
vt 1.291214 0.3679899
vt 3.698608 -0.8257502
vt 4.106863 0.3679898
vt 1.064166 3.698608
vt 1.164167 3.698608
vt 1.064166 -0.4313469
vt 1.164166 -0.4313469
vt -0.05117454 1.395492
vt -0.2150695 2.897477
vt 0.04882549 1.395492
vt -0.1429133 2.825572
vt 0.2589544 1.631901
vt -0.1746569 -0.8894495
vt 0.1848368 1.631901
vt -0.2720107 -0.8792073
vt -0.1345489 4.298994
vt 0.02500422 4.765036
vt -0.07157723 4.194449
vt 0.04473682 4.728381
vt -1.850316 0.8938499
vt -1.439363 0.6513132
vt -1.873779 0.7966415
vt -1.473224 0.607282
vt 1.618892 1.350667
vt 2.342115 1.419002
vt 1.665744 1.262322
vt 2.369465 1.335479
vt -1.693403 0.5
vt -0.9271766 0.4330127
vt -1.693403 0.4
vt -0.971092 0.3464102
vt -3.147467 -1.658933
vt -2.3927 -1.736171
vt -3.200758 -1.774235
vt -2.429342 -1.794344
vt 0.3471166 1.175974
vt 1.094359 1.246962
vt 0.3868332 1.084199
vt 1.094359 1.152598
vt -3.833985 1.779147
vt -3.185173 1.572459
vt -3.854818 1.681341
vt -3.221256 1.491599
vt -1.264499 1.089076
vt -1.197511 1.890444
vt -1.164499 1.089076
vt -1.110909 1.874846
vt 0.4605065 1.650003
vt 0.3943416 0.3447073
vt 0.3756832 1.59704
vt 0.2963961 0.3380569
vt -1.164166 -0.9223362
vt -1.31578 1.195618
vt -1.064166 -0.9223362
vt -1.229178 1.166527

g Ext 21 Outside Door Down
usemtl Default_Prototype
f 3/3/3 4/4/4 2/2/2 1/1/1
f 7/7/7 8/8/8 6/6/6 5/5/5
f 11/11/11 12/12/12 10/10/10 9/9/9
f 15/15/15 16/16/16 14/14/14 13/13/13
f 19/19/19 20/20/20 18/18/18 17/17/17
f 23/23/23 24/24/24 22/22/22 21/21/21
f 27/27/27 28/28/28 26/26/26 25/25/25
f 31/31/31 32/32/32 30/30/30 29/29/29
f 35/35/35 36/36/36 34/34/34 33/33/33
f 39/39/39 40/40/40 38/38/38 37/37/37
f 43/43/43 44/44/44 42/42/42 41/41/41
f 47/47/47 48/48/48 46/46/46 45/45/45
f 51/51/51 52/52/52 50/50/50 49/49/49
f 55/55/55 56/56/56 54/54/54 53/53/53
f 59/59/59 60/60/60 58/58/58 57/57/57
f 63/63/63 64/64/64 62/62/62 61/61/61
f 67/67/67 68/68/68 66/66/66 65/65/65
f 71/71/71 72/72/72 70/70/70 69/69/69
f 75/75/75 76/76/76 74/74/74 73/73/73
f 79/79/79 80/80/80 78/78/78 77/77/77
f 83/83/83 84/84/84 82/82/82 81/81/81
f 87/87/87 88/88/88 86/86/86 85/85/85
f 91/91/91 92/92/92 90/90/90 89/89/89
f 95/95/95 96/96/96 94/94/94 93/93/93
f 99/99/99 100/100/100 98/98/98 97/97/97
f 103/103/103 104/104/104 102/102/102 101/101/101

