# Exported from ProBuilder
# http://www.procore3d.com/probuilder
# 4/22/2018 9:03:02 PM

mtllib ./Ext_16_Corner_Box_(1).mtl
o Ext 16 Corner Box (1)

g Ext 16 Corner Box (1)
v 1.216771 -0.4999998 -1.351333
v -0.6310682 -0.4999999 0.5222964
v 1.696185 0.5 0.05034876
v -0.2543535 0.4999998 1.561715
v -0.6310682 -0.4999999 0.5222964
v -1.621656 -0.4999999 -0.2611413
v -0.2543535 0.4999998 1.561715
v -1.696186 0.5 1.426811
v -1.621656 -0.4999999 -0.2611413
v -0.3186684 -0.4999999 -1.561715
v -1.696186 0.5 1.426811
v -0.007263184 0.4999998 -0.1550307
v -0.3186684 -0.4999999 -1.561715
v 1.216771 -0.4999998 -1.351333
v -0.007263184 0.4999998 -0.1550307
v 1.696185 0.5 0.05034876
v 1.696185 0.5 0.05034876
v -0.2543535 0.4999998 1.561715
v -0.007263184 0.4999998 -0.1550307
v -1.696186 0.5 1.426811
v -0.3186684 -0.4999999 -1.561715
v -1.621656 -0.4999999 -0.2611413
v 1.216771 -0.4999998 -1.351333
v -0.6310682 -0.4999999 0.5222964

vn 0.4267594 -0.7671729 0.478876
vn 0.503935 -0.7064292 0.4969984
vn 0.355731 -0.8140537 0.4590992
vn 0.4267594 -0.7671729 0.478876
vn -0.2236427 -0.774008 0.5923645
vn -0.3656968 -0.8077498 0.4623915
vn -0.06587873 -0.7070377 0.7041005
vn -0.2236427 -0.774008 0.5923645
vn -0.4449307 0.7672987 -0.4618326
vn -0.4488083 0.7722651 -0.4496416
vn -0.4417315 0.763174 -0.4716341
vn -0.4449307 0.7672987 -0.4618326
vn 0.07606043 0.8019482 -0.5925318
vn 0.08182985 0.7978889 -0.5972247
vn 0.07093292 0.8055044 -0.5883291
vn 0.07606043 0.8019482 -0.5925318
vn -1.706771E-19 1 0
vn 1.343725E-07 1 3.311689E-07
vn -1.079004E-07 1 -2.659267E-07
vn -1.706771E-19 1 0
vn 5.622039E-08 -1 3.702854E-08
vn 3.357099E-08 -1 3.363332E-08
vn 7.223606E-08 -1 3.942934E-08
vn 5.622039E-08 -1 3.702854E-08

vt 2.009466 -0.3449439
vt -0.6219736 -0.3220985
vt 1.362562 1.321209
vt -1.085341 1.081003
vt -0.1003779 -0.1246159
vt -1.363327 -0.1246159
vt 0.8398721 1.032204
vt -0.3747067 1.42866
vt 0.7654403 -1.295169
vt -1.075556 -1.2929
vt 2.012513 0.2212552
vt -0.3002647 0.2794566
vt -1.180117 -1.154296
vt -1.987291 0.168694
vt -0.005130851 0.1476794
vt -0.9176972 1.600563
vt -1.359966 1.283162
vt 1.08797 0.9726201
vt -0.3006708 -0.06658348
vt 2.012108 -0.1423
vt 1.07515 -1.281456
vt -0.7658464 -1.283162
vt 2.012108 -0.04697477
vt -0.6193679 -0.0287367

g Ext 16 Corner Box (1)
usemtl Blanc_fosc
f 3/3/3 4/4/4 2/2/2 1/1/1
f 7/7/7 8/8/8 6/6/6 5/5/5
f 11/11/11 12/12/12 10/10/10 9/9/9
f 15/15/15 16/16/16 14/14/14 13/13/13
f 19/19/19 20/20/20 18/18/18 17/17/17
f 23/23/23 24/24/24 22/22/22 21/21/21

