# Exported from ProBuilder
# http://www.procore3d.com/probuilder
# 4/22/2018 9:31:38 PM

mtllib ./Ext_23_Tower_Right.mtl
o Ext 23 Tower Right

g Ext 23 Tower Right (1)
v -0.8317918 -0.5 -0.5451406
v -1.10006 0.5 0.02750296
v -0.5729725 -0.5 0.420785
v -0.8412403 0.5 0.9934292
v -0.5729725 -0.5 0.420785
v -0.8412403 0.5 0.9934292
v 0.3929536 -0.5 0.6796036
v 0.1246859 0.5 1.252248
v 0.3929536 -0.5 0.6796036
v 0.1246859 0.5 1.252248
v 1.10006 -0.5 -0.02750362
v 0.8317923 0.5 0.5451401
v 1.10006 -0.5 -0.02750362
v 0.8317923 0.5 0.5451401
v 0.8412404 -0.5 -0.9934292
v 0.5729727 0.5 -0.4207853
v 0.8412404 -0.5 -0.9934292
v 0.5729727 0.5 -0.4207853
v -0.1246854 -0.5 -1.252248
v -0.3929532 0.5 -0.6796039
v -0.1246854 -0.5 -1.252248
v -0.3929532 0.5 -0.6796039
v -0.8317918 -0.5 -0.5451406
v -1.10006 0.5 0.02750296
v -0.8317918 -0.5 -0.5451406
v 0.1341339 -0.5 -0.2863221
v -0.5729725 -0.5 0.420785
v -1.10006 0.5 0.02750296
v -0.1341337 0.5 0.2863216
v -0.8412403 0.5 0.9934292
v -0.5729725 -0.5 0.420785
v 0.1341339 -0.5 -0.2863221
v 0.3929536 -0.5 0.6796036
v -0.8412403 0.5 0.9934292
v -0.1341337 0.5 0.2863216
v 0.1246859 0.5 1.252248
v 0.3929536 -0.5 0.6796036
v 0.1341339 -0.5 -0.2863221
v 1.10006 -0.5 -0.02750362
v 0.1246859 0.5 1.252248
v -0.1341337 0.5 0.2863216
v 0.8317923 0.5 0.5451401
v 1.10006 -0.5 -0.02750362
v 0.1341339 -0.5 -0.2863221
v 0.8412404 -0.5 -0.9934292
v 0.8317923 0.5 0.5451401
v -0.1341337 0.5 0.2863216
v 0.5729727 0.5 -0.4207853
v 0.8412404 -0.5 -0.9934292
v 0.1341339 -0.5 -0.2863221
v -0.1246854 -0.5 -1.252248
v 0.5729727 0.5 -0.4207853
v -0.1341337 0.5 0.2863216
v -0.3929532 0.5 -0.6796039
v -0.1246854 -0.5 -1.252248
v 0.1341339 -0.5 -0.2863221
v -0.8317918 -0.5 -0.5451406
v -0.3929532 0.5 -0.6796039
v -0.1341337 0.5 0.2863216
v -1.10006 0.5 0.02750296

vn -0.7929178 -0.083417 -0.2257903
vn -0.7929178 -0.08341682 -0.2257904
vn -0.5571379 -0.4528767 0.5298482
vn -0.5571379 -0.4528766 0.5298481
vn -0.5571379 -0.4528767 0.5298482
vn -0.5571379 -0.4528766 0.5298481
vn 0.23578 -0.3694596 0.7556383
vn 0.23578 -0.3694597 0.7556382
vn 0.23578 -0.3694596 0.7556383
vn 0.23578 -0.3694597 0.7556382
vn 0.7929178 0.08341686 0.2257901
vn 0.792918 0.08341684 0.22579
vn 0.7929178 0.08341686 0.2257901
vn 0.792918 0.08341684 0.22579
vn 0.557138 0.4528765 -0.5298482
vn 0.557138 0.4528764 -0.5298482
vn 0.557138 0.4528765 -0.5298482
vn 0.557138 0.4528764 -0.5298482
vn -0.2357798 0.3694596 -0.7556384
vn -0.2357797 0.3694596 -0.7556384
vn -0.2357798 0.3694596 -0.7556384
vn -0.2357797 0.3694596 -0.7556384
vn -0.7929178 -0.083417 -0.2257903
vn -0.7929178 -0.08341682 -0.2257904
vn 0 -1 0
vn 0 -1 0
vn 0 -1 0
vn 0 1 0
vn 0 1 0
vn 0 1 0
vn 0 -1 0
vn 0 -1 0
vn 0 -1 0
vn 0 0.9999999 0
vn 0 0.9999999 0
vn 0 0.9999999 0
vn 0 -1 0
vn 0 -1 0
vn 0 -1 0
vn 0 1 0
vn 0 1 0
vn 0 1 0
vn 0 -0.9999999 0
vn 0 -0.9999999 0
vn 0 -0.9999999 0
vn 0 1 0
vn 0 1 0
vn 0 1 0
vn 0 -0.9999999 0
vn 0 -0.9999999 0
vn 0 -0.9999999 0
vn 0 1 0
vn 0 1 0
vn 0 1 0
vn 0 -1 0
vn 0 -1 0
vn 0 -1 0
vn 0 1 0
vn 0 1 0
vn 0 1 0

vt -0.7418492 -0.2131891
vt -0.2581509 0.8665907
vt 0.2581507 -0.213189
vt 0.7418495 0.8665908
vt -0.444542 -0.131275
vt -0.555458 1.046684
vt 0.5554581 -0.131275
vt 0.4445423 1.046684
vt -0.2026927 -0.3292308
vt -0.7973073 0.6936682
vt 0.7973072 -0.3292308
vt 0.202693 0.6936682
vt -0.2581503 -0.8665907
vt -0.7418489 0.213189
vt 0.7418495 -0.8665907
vt 0.2581509 0.2131891
vt -0.555458 -1.046684
vt -0.4445422 0.131275
vt 0.4445419 -1.046684
vt 0.5554578 0.131275
vt -0.7973076 -0.6936681
vt -0.202693 0.3292308
vt 0.2026925 -0.6936681
vt 0.7973067 0.3292308
vt -0.9445419 -0.3112823
vt 0.05545798 -0.3112823
vt -0.444542 0.5547431
vt 1.055458 0.3112817
vt 0.05545783 0.3112817
vt 0.5554579 1.177308
vt -0.444542 0.5547431
vt 0.05545798 -0.3112823
vt 0.5554581 0.5547431
vt 0.5554579 1.177308
vt 0.05545783 0.3112817
vt -0.4445423 1.177307
vt 0.5554581 0.5547431
vt 0.05545798 -0.3112823
vt 1.055458 -0.3112824
vt -0.4445423 1.177307
vt 0.05545783 0.3112817
vt -0.9445422 0.3112817
vt 1.055458 -0.3112824
vt 0.05545798 -0.3112823
vt 0.555458 -1.177308
vt -0.9445422 0.3112817
vt 0.05545783 0.3112817
vt -0.4445422 -0.5547434
vt 0.555458 -1.177308
vt 0.05545798 -0.3112823
vt -0.4445419 -1.177308
vt -0.4445422 -0.5547434
vt 0.05545783 0.3112817
vt 0.5554578 -0.5547434
vt -0.4445419 -1.177308
vt 0.05545798 -0.3112823
vt -0.9445419 -0.3112823
vt 0.5554578 -0.5547434
vt 0.05545783 0.3112817
vt 1.055458 0.3112817

g Ext 23 Tower Right (1)_0
usemtl Blanc_fosc
f 3/3/3 4/4/4 2/2/2 1/1/1
f 7/7/7 8/8/8 6/6/6 5/5/5
f 11/11/11 12/12/12 10/10/10 9/9/9
f 15/15/15 16/16/16 14/14/14 13/13/13
f 19/19/19 20/20/20 18/18/18 17/17/17
f 23/23/23 24/24/24 22/22/22 21/21/21

g Ext 23 Tower Right (1)_1
usemtl Blanc_fosc
f 25/25/25 26/26/26 27/27/27
f 31/31/31 32/32/32 33/33/33
f 37/37/37 38/38/38 39/39/39
f 43/43/43 44/44/44 45/45/45
f 49/49/49 50/50/50 51/51/51
f 55/55/55 56/56/56 57/57/57
f 30/30/30 29/29/29 28/28/28
f 36/36/36 35/35/35 34/34/34
f 42/42/42 41/41/41 40/40/40
f 48/48/48 47/47/47 46/46/46
f 54/54/54 53/53/53 52/52/52
f 60/60/60 59/59/59 58/58/58

