# Exported from ProBuilder
# http://www.procore3d.com/probuilder
# 3/1/2018 5:42:06 PM

mtllib ./Ext_7_Right_box_small.mtl
o Ext 7 Right box small

g Ext 7 Right box small
v -7.574772 0.04000002 0.4209499
v -8.07818 0.04000002 0.5367242
v -7.734634 1.200329 0.6301226
v -8.285135 1.200329 0.5828398
v -8.07818 0.04000002 0.5367242
v -8.071277 0.04000002 -0.5975899
v -8.285135 1.200329 0.5828398
v -8.30955 1.200329 -0.4960352
v -8.071277 0.04000002 -0.5975899
v -7.556408 0.04000002 -0.5140099
v -8.30955 1.200329 -0.4960352
v -7.756177 1.200329 -0.3991202
v -7.556408 0.04000002 -0.5140099
v -7.574772 0.04000002 0.4209499
v -7.756177 1.200329 -0.3991202
v -7.734634 1.200329 0.6301226
v -7.734634 1.200329 0.6301226
v -8.285135 1.200329 0.5828398
v -7.756177 1.200329 -0.3991202
v -8.30955 1.200329 -0.4960352
v -7.556408 0.04000002 -0.5140099
v -8.071277 0.04000002 -0.5975899
v -7.574772 0.04000002 0.4209499
v -8.07818 0.04000002 0.5367242

vn 0.04128959 -0.1582765 0.6116595
vn 0.1070795 0.002010344 0.6098943
vn -0.01896962 -0.2957356 0.5911374
vn 0.04128959 -0.1582765 0.6116595
vn -0.4709333 -0.3565938 -0.01197303
vn -0.4670218 -0.3763404 -0.02176514
vn -0.4747499 -0.3351872 -0.001486779
vn -0.4709333 -0.3565938 -0.01197303
vn 0.05256544 0.196791 -0.6025026
vn 0.04991447 0.1996171 -0.6025854
vn 0.0550303 0.1941551 -0.6024062
vn 0.05256544 0.196791 -0.6025026
vn 0.4817763 0.2942557 0.01683814
vn 0.487012 0.2570698 0.03267527
vn 0.4762568 0.3268132 0.002717995
vn 0.4817763 0.2942557 0.01683814
vn 0 1 0
vn 0 1 0
vn 0 1 0
vn 0 1 0
vn 0 -1 0
vn 0 -1 0
vn 0 -1 0
vn 0 -1 0

vt 0.4671202 -0.09528761
vt -0.5548385 -0.09528761
vt 0.08352309 1.09643
vt -0.9744676 1.033947
vt -0.2858004 0.2108754
vt -2.115685 0.2108754
vt -0.1958723 1.441473
vt -1.933994 1.461939
vt 0.8283647 -0.389722
vt -0.1982622 -0.389722
vt 1.280619 0.7922229
vt 0.1760593 0.7943869
vt 2.025788 -0.1135742
vt 0.5163406 -0.1135742
vt 1.818938 1.110994
vt 0.1617927 1.084543
vt -0.06463097 -0.1554912
vt 1.019282 -0.2954152
vt -0.1694538 -1.811387
vt 0.9130367 -2.031374
vt 0.5817141 -1.972734
vt -0.4263985 -2.166826
vt 0.4113365 -0.4729337
vt -0.6026394 -0.345448

g Ext 7 Right box small
usemtl Default_Prototype
f 3/3/3 4/4/4 2/2/2 1/1/1
f 7/7/7 8/8/8 6/6/6 5/5/5
f 11/11/11 12/12/12 10/10/10 9/9/9
f 15/15/15 16/16/16 14/14/14 13/13/13
f 19/19/19 20/20/20 18/18/18 17/17/17
f 23/23/23 24/24/24 22/22/22 21/21/21

