# Exported from ProBuilder
# http://www.procore3d.com/probuilder
# 3/1/2018 5:41:31 PM

mtllib ./Ext_2_Up_Box.mtl
o Ext 2 Up Box

g Ext 2 Up Box
v 4.767942 0.05000001 5.44
v 2.909923 0.05000001 5.105046
v 4.767942 0.3939493 5.44
v 2.998587 0.3939493 5.44
v 2.909923 0.05000001 5.105046
v 2.909923 0.05000001 4.441891
v 2.998587 0.3939493 5.44
v 2.998587 0.3939493 4.84
v 2.909923 0.05000001 4.441891
v 4.732594 0.05000001 4.441891
v 2.998587 0.3939493 4.84
v 4.772 0.3939493 4.84
v 4.732594 0.05000001 4.441891
v 4.767942 0.05000001 5.44
v 4.772 0.3939493 4.84
v 4.767942 0.3939493 5.44
v 4.767942 0.3939493 5.44
v 2.998587 0.3939493 5.44
v 4.772 0.3939493 4.84
v 2.998587 0.3939493 4.84
v 4.732594 0.05000001 4.441891
v 2.909923 0.05000001 4.441891
v 4.767942 0.05000001 5.44
v 2.909923 0.05000001 5.105046

vn -0.4691846 -0.6033986 0.4572916
vn -0.6206186 -0.7981515 0.3098362
vn 0 0 0.6
vn -0.4691846 -0.6033986 0.4572916
vn -1.983591 0.1278342 0
vn -1.983591 0.1278342 0
vn -1.983591 0.1278342 0
vn -1.983591 0.1278342 0
vn 0 0.8878066 -0.27613
vn 0 0.8878067 -0.27613
vn 0 0.8878067 -0.27613
vn 0 0.8878066 -0.27613
vn 1.999438 -0.02297057 -0.003523333
vn 1.999887 0 -0.006374411
vn 1.996261 -0.06108525 0.001215161
vn 1.999438 -0.02297057 -0.003523333
vn 0 1 0
vn 0 1 0
vn 0 1 0
vn 0 1 0
vn 0 -1 0
vn 0 -1 0
vn 0 -0.9999999 0
vn 0 -1 0

vt -0.001739202 0
vt -1.08558 0
vt -0.001739202 0.3439493
vt -0.7600372 0.3439493
vt -0.558257 -0.1190186
vt -1.663515 -0.1190186
vt 0 0.227776
vt -1 0.227776
vt 0.9310388 -1.476879
vt 0.01970327 -1.476879
vt 0.8867066 -0.7295154
vt 0 -0.7295154
vt 1.66363 -7.45891E-05
vt 2.155678E-05 -7.458901E-05
vt 0.9999436 0.3441074
vt 2.155678E-05 0.3436422
vt 0.002029061 0
vt 0.8867066 0
vt 0 -1
vt 0.8867066 -1
vt -0.01970327 -1.663515
vt -0.9310388 -1.663515
vt -0.002029061 0
vt -0.9310388 -0.558257

g Ext 2 Up Box
usemtl Default_Prototype
f 3/3/3 4/4/4 2/2/2 1/1/1
f 7/7/7 8/8/8 6/6/6 5/5/5
f 11/11/11 12/12/12 10/10/10 9/9/9
f 15/15/15 16/16/16 14/14/14 13/13/13
f 19/19/19 20/20/20 18/18/18 17/17/17
f 23/23/23 24/24/24 22/22/22 21/21/21

