# Exported from ProBuilder
# http://www.procore3d.com/probuilder
# 3/1/2018 5:42:21 PM

mtllib ./Ext_9_Low_corner_box.mtl
o Ext 9 Low corner box

g Ext 9 Low corner box
v -5.845519 0.06999999 -5.985787
v -7.673912 0.06999999 -4.042811
v -5.845519 1.07 -4.122441
v -7.622483 1.07 -3.307883
v -7.673912 0.06999999 -4.042811
v -8.807017 0.06999999 -5.227347
v -7.622483 1.07 -3.307883
v -8.960504 1.07 -3.971084
v -8.807017 0.06999999 -5.227347
v -6.820073 0.06999999 -6.837856
v -8.960504 1.07 -3.971084
v -6.957713 1.07 -5.27887
v -6.820073 0.06999999 -6.837856
v -5.845519 0.06999999 -5.985787
v -6.957713 1.07 -5.27887
v -5.845519 1.07 -4.122441
v -5.845519 1.07 -4.122441
v -7.622483 1.07 -3.307883
v -6.957713 1.07 -5.27887
v -8.960504 1.07 -3.971084
v -6.820073 0.06999999 -6.837856
v -8.807017 0.06999999 -5.227347
v -5.845519 0.06999999 -5.985787
v -7.673912 0.06999999 -4.042811

vn 0.05917307 -0.7071426 0.8871353
vn 0.7441512 -0.4749586 0.4966135
vn -0.4473469 -0.7946354 1.069289
vn 0.05917307 -0.7071426 0.8871353
vn -1.682237 -0.309873 1.757855
vn -1.698183 -0.3570493 1.686742
vn -1.649567 -0.2512168 1.828157
vn -1.682237 -0.309873 1.757855
vn 0.00862696 0.7026857 -0.9436941
vn -0.1443257 0.7374918 -0.7781841
vn 0.177739 0.6568014 -1.116877
vn 0.00862696 0.7026857 -0.9436941
vn 1.616021 0.4470867 -1.625452
vn 1.571933 0.4808888 -1.604368
vn 1.650668 0.4182905 -1.640893
vn 1.616021 0.4470867 -1.625452
vn 0 1 0
vn 0 1 0
vn 0 1 0
vn 0 1 0
vn 0 -1 0
vn 0 -1 0
vn 0 -1 0
vn 0 -1 0

vt 0.5228664 -0.9018811
vt -0.5158941 -0.7990606
vt 0.07046746 0.7701672
vt -0.6433241 0.2606912
vt -1.034077 0.09504718
vt -2.672958 0.09504718
vt -0.4764262 1.111795
vt -1.889837 1.147669
vt 1.178927 -1.594796
vt 0.1511644 -1.594796
vt 1.352712 -0.27981
vt 0.3430695 -0.1252062
vt 2.397588 -0.2450239
vt 1.105528 -0.2450239
vt 1.405135 0.870475
vt -0.1981553 0.894477
vt -0.009657115 0.1979705
vt 0.7054586 -0.4825532
vt -0.02186295 -1.406188
vt 0.8916712 -1.89763
vt 0.490037 -2.411232
vt -0.5026593 -2.677411
vt 0.5238364 -1.119614
vt -0.5168511 -1.038591

g Ext 9 Low corner box
usemtl Default_Prototype
f 3/3/3 4/4/4 2/2/2 1/1/1
f 7/7/7 8/8/8 6/6/6 5/5/5
f 11/11/11 12/12/12 10/10/10 9/9/9
f 15/15/15 16/16/16 14/14/14 13/13/13
f 19/19/19 20/20/20 18/18/18 17/17/17
f 23/23/23 24/24/24 22/22/22 21/21/21

