# Exported from ProBuilder
# http://www.procore3d.com/probuilder
# 3/1/2018 5:42:42 PM

mtllib ./Ext_12_Low_box.mtl
o Ext 12 Low box

g Ext 12 Low box
v 4.73 0.06999999 -4.914663
v 3.932121 0.06999999 -4.916169
v 4.851485 1.07 -4.696665
v 4.09532 1.07 -4.701947
v 3.932121 0.06999999 -4.916169
v 3.945918 0.06999999 -5.167779
v 4.09532 1.07 -4.701947
v 4.079474 1.07 -4.960345
v 3.945918 0.06999999 -5.167779
v 4.73 0.06999999 -5.167779
v 4.079474 1.07 -4.960345
v 4.851485 1.07 -4.949781
v 4.73 0.06999999 -5.167779
v 4.73 0.06999999 -4.914663
v 4.851485 1.07 -4.949781
v 4.851485 1.07 -4.696665
v 4.851485 1.07 -4.696665
v 4.09532 1.07 -4.701947
v 4.851485 1.07 -4.949781
v 4.079474 1.07 -4.960345
v 4.73 0.06999999 -5.167779
v 3.945918 0.06999999 -5.167779
v 4.73 0.06999999 -4.914663
v 3.932121 0.06999999 -4.916169

vn -0.004232704 -0.4418466 0.3924676
vn -0.001831569 -0.4392502 0.3930325
vn -0.006758675 -0.4445682 0.3918645
vn -0.004232704 -0.4418466 0.3924676
vn -0.6721951 0.2098129 0.001093362
vn -0.6723229 0.2061546 -0.01493003
vn -0.671198 0.2130968 0.01666832
vn -0.6721951 0.2098129 0.001093362
vn 0.006600436 0.4358022 -0.3937458
vn 0 0.4459819 -0.3915805
vn 0.01337614 0.42525 -0.3958789
vn 0.006600436 0.4358022 -0.3937458
vn 0.6770114 -0.1740099 0
vn 0.6770114 -0.1740099 0
vn 0.6770114 -0.1740099 0
vn 0.6770114 -0.1740099 0
vn 0 1 0
vn 0 1 0
vn 0 1 0
vn 0 1 0
vn 0 -1 0
vn 0 -1 0
vn 0 -1 0
vn 0 -1 0

vt -0.000833204 -0.1251991
vt -1.16139 -0.1251991
vt 0.1773495 0.9918324
vt -0.9225585 0.9879066
vt -0.2437602 -0.2883091
vt -0.8192199 -0.2883091
vt 0.2373135 0.7435219
vt -0.3521476 0.7327678
vt 1.140483 -0.3682339
vt 0 -0.3682339
vt 0.94622 0.738475
vt -0.1767058 0.7488192
vt 0.8595171 0
vt 0.2809658 0
vt 0.3612366 1.015492
vt -0.2173147 1.015492
vt -0.1767058 0.2173147
vt 0.9231713 0.2052429
vt -0.1767058 -0.3612366
vt 0.94622 -0.3853814
vt 0 -0.8595171
vt -1.140483 -0.8595171
vt 0 -0.2809658
vt -1.160552 -0.2844074

g Ext 12 Low box
usemtl Default_Prototype
f 3/3/3 4/4/4 2/2/2 1/1/1
f 7/7/7 8/8/8 6/6/6 5/5/5
f 11/11/11 12/12/12 10/10/10 9/9/9
f 15/15/15 16/16/16 14/14/14 13/13/13
f 19/19/19 20/20/20 18/18/18 17/17/17
f 23/23/23 24/24/24 22/22/22 21/21/21

