# Exported from ProBuilder
# http://www.procore3d.com/probuilder
# 3/1/2018 5:41:45 PM

mtllib ./Ext_4_Up_Box.mtl
o Ext 4 Up Box

g Ext 4 Up Box
v -4.276925 0.06999999 5.135432
v -6.618168 0.06999999 5.9325
v -4.387629 1.07 5.9325
v -6.711997 1.07 5.9325
v -6.618168 0.06999999 5.9325
v -6.618168 0.06999999 4.398221
v -6.711997 1.07 5.9325
v -6.855912 1.07 5.3325
v -6.618168 0.06999999 4.398221
v -4.374619 0.06999999 4.398221
v -6.855912 1.07 5.3325
v -4.573886 1.07 5.232865
v -4.374619 0.06999999 4.398221
v -4.276925 0.06999999 5.135432
v -4.573886 1.07 5.232865
v -4.387629 1.07 5.9325
v -4.387629 1.07 5.9325
v -6.711997 1.07 5.9325
v -4.573886 1.07 5.232865
v -6.855912 1.07 5.3325
v -4.374619 0.06999999 4.398221
v -6.618168 0.06999999 4.398221
v -4.276925 0.06999999 5.135432
v -6.618168 0.06999999 5.9325

vn 0.8664995 -0.4831902 0.4564821
vn 1.499609 0.03517677 0.3964344
vn 0 -0.7989409 0.3608457
vn 0.8664995 -0.4831902 0.4564821
vn -1.989937 -0.09814674 0.01207639
vn -1.986017 -0.1180411 0
vn -1.992662 -0.04674244 0.04301614
vn -1.989937 -0.09814674 0.01207639
vn -0.08263432 0.8254181 -0.3378048
vn 0 0.8119696 -0.3502198
vn -0.1580354 0.8360429 -0.3257665
vn -0.08263432 0.8254181 -0.3378048
vn 1.972083 0.1559012 -0.03507529
vn 1.986851 0.1074539 -0.02369646
vn 1.951069 0.2055779 -0.04674737
vn 1.972083 0.1559012 -0.03507529
vn 0 1 0
vn 0 1 0
vn 0 1 0
vn 0 1 0
vn 0 -1 0
vn 0 -0.9999999 0
vn 0 -1 0
vn 0 -1 0

vt -0.05841817 -1.118457
vt -0.929987 0.4228067
vt 0.5679536 0.4228068
vt -0.2973333 0.8161984
vt 0 0.05853587
vt -2.557132 0.05853587
vt 0 1.059636
vt -1 1.063008
vt 1.249084 -2.151642
vt 0.1273096 -2.151642
vt 1.367956 -0.3010576
vt 0.2269433 -0.4407834
vt 2.560171 0.003921068
vt 1.330516 0.003921068
vt 1.174153 1.015834
vt 0.005315664 1.008684
vt 0.1338146 0
vt 1.295999 0
vt 0.2269433 -1.166058
vt 1.367956 -1
vt -0.1273096 -2.557132
vt -1.249084 -2.557132
vt -0.0784626 -1.328447
vt -1.249084 0

g Ext 4 Up Box
usemtl Default_Prototype
f 3/3/3 4/4/4 2/2/2 1/1/1
f 7/7/7 8/8/8 6/6/6 5/5/5
f 11/11/11 12/12/12 10/10/10 9/9/9
f 15/15/15 16/16/16 14/14/14 13/13/13
f 19/19/19 20/20/20 18/18/18 17/17/17
f 23/23/23 24/24/24 22/22/22 21/21/21

