# Exported from ProBuilder
# http://www.procore3d.com/probuilder
# 4/27/2018 3:31:39 PM

mtllib ./Ext_6_Right_box_1.mtl
o Ext 6 Right box 1

g Ext 6 Right box 1
v -7.235137 0.04000002 2.424792
v -8.057523 0.04000002 3.071397
v -7.604554 1.04 2.99
v -8.397377 1.04 3.071397
v -8.057523 0.04000002 3.071397
v -8.267652 0.04000002 0.8714764
v -8.397377 1.04 3.071397
v -8.667329 1.04 1.496456
v -8.267652 0.04000002 0.8714764
v -7.414508 0.04000002 0.8039707
v -8.667329 1.04 1.496456
v -7.769711 1.04 1.397663
v -7.414508 0.04000002 0.8039707
v -7.235137 0.04000002 2.424792
v -7.769711 1.04 1.397663
v -7.604554 1.04 2.99
v -7.604554 1.04 2.99
v -8.397377 1.04 3.071397
v -7.769711 1.04 1.397663
v -8.667329 1.04 1.496456
v -7.414508 0.04000002 0.8039707
v -8.267652 0.04000002 0.8714764
v -7.235137 0.04000002 2.424792
v -8.057523 0.04000002 3.071397

vn 0.4083585 -0.111227 0.9060198
vn 0.6048834 0.2055714 0.7693221
vn 0.0904438 -0.4645036 0.8809405
vn 0.4083585 -0.111227 0.9060198
vn -0.9190685 -0.3763652 0.1168858
vn -0.9053029 -0.4158717 0.08647145
vn -0.9345875 -0.3176229 0.1601927
vn -0.9190685 -0.3763652 0.1168858
vn -0.08211963 0.4958025 -0.864544
vn -0.06871027 0.4911375 -0.8683679
vn -0.09473682 0.5000994 -0.8607703
vn -0.08211963 0.4958025 -0.864544
vn 0.9160647 0.3888154 -0.09822436
vn 0.9133116 0.3945201 -0.1010733
vn 0.9188382 0.3829541 -0.09530199
vn 0.9160647 0.3888154 -0.09822436
vn 0 1 0
vn 0 1 0
vn 0 0.9999999 0
vn 0 1 0
vn 0 -1 0
vn 0 -1 0
vn 0 -1 0
vn 0 -1 0

vt 0.2664254 -0.316205
vt -0.7797186 -0.316205
vt -0.373324 0.7068542
vt -1.046882 0.6169086
vt 1.108992 -0.404963
vt -1.100942 -0.404963
vt 1.076677 0.6507151
vt -0.5167968 0.688844
vt 0.2321462 -0.9890025
vt -0.6236643 -0.9890025
vt 0.6798758 0.1728404
vt -0.2227381 0.1587477
vt 1.077284 -0.715076
vt -0.5534322 -0.715076
vt 0.5262645 0.3689063
vt -1.074577 0.3731495
vt -0.2242306 1.075435
vt 0.5727051 1.066109
vt -0.2412958 -0.5253532
vt 0.6617337 -0.5293187
vt 0.6617334 -1.074782
vt -0.1935514 -1.104772
vt 0.6555493 0.5559222
vt -0.235058 1.104772

g Ext 6 Right box 1
usemtl Blanc_fosc
f 3/3/3 4/4/4 2/2/2 1/1/1
f 7/7/7 8/8/8 6/6/6 5/5/5
f 11/11/11 12/12/12 10/10/10 9/9/9
f 15/15/15 16/16/16 14/14/14 13/13/13
f 19/19/19 20/20/20 18/18/18 17/17/17
f 23/23/23 24/24/24 22/22/22 21/21/21

