# Exported from ProBuilder
# http://www.procore3d.com/probuilder
# 3/13/2018 11:33:51 AM

mtllib ./Ext_18_Outside_Door_Left.mtl
o Ext 18 Outside Door Left

g Ext 18 Outside Door Left
v 8.897707 0.01771975 -0.1052556
v 9.274444 1.216938 0.1544332
v 8.315679 0.01771975 -0.1052557
v 8.579354 1.216938 0.1544331
v 9.274444 1.2 0.2265894
v 8.897707 0.01771975 -0.00525558
v 8.603595 1.2 0.2265894
v 8.315679 0.01771975 -0.005255694
v 8.315679 0.01771975 -0.1052557
v 8.315679 0.01771975 -0.005255694
v 8.897707 0.01771975 -0.1052556
v 8.897707 0.01771975 -0.00525558
v 9.274444 1.216938 0.1544332
v 9.4268 1.433013 0.2499999
v 8.579354 1.216938 0.1544331
v 8.727298 1.433013 0.2499998
v 9.4268 1.34641 0.2999999
v 9.274444 1.2 0.2265894
v 8.727298 1.34641 0.2999998
v 8.603595 1.2 0.2265894
v 9.4268 1.433013 0.2499999
v 9.519066 1.5 0.8253716
v 8.727298 1.433013 0.2499998
v 8.844847 1.5 0.8253715
v 9.519066 1.4 0.8253716
v 9.4268 1.34641 0.2999999
v 8.825266 1.4 0.8253715
v 8.727298 1.34641 0.2999998
v 9.519066 1.5 0.8253716
v 9.453367 1.433013 1.263666
v 8.844847 1.5 0.8253715
v 8.78234 1.433013 1.263666
v 9.453367 1.34641 1.213666
v 9.519066 1.4 0.8253716
v 8.78234 1.34641 1.213666
v 8.825266 1.4 0.8253715
v 9.453367 1.433013 1.263666
v 9.387707 1.25 1.446679
v 8.78234 1.433013 1.263666
v 8.683795 1.25 1.446679
v 9.387707 1.2 1.360077
v 9.453367 1.34641 1.213666
v 8.683795 1.2 1.360077
v 8.78234 1.34641 1.213666
v 9.387707 1.25 1.446679
v 8.878126 0.01771975 1.164166
v 8.683795 1.25 1.446679
v 8.296098 0.01771975 1.164166
v 8.878126 0.01771975 1.064166
v 9.387707 1.2 1.360077
v 8.296098 0.01771975 1.064166
v 8.683795 1.2 1.360077
v 8.296098 0.01771975 1.064166
v 8.296098 0.01771975 1.164166
v 8.878126 0.01771975 1.064166
v 8.878126 0.01771975 1.164166
v 8.315679 0.01771975 -0.1052557
v 8.579354 1.216938 0.1544331
v 8.315679 0.01771975 -0.005255694
v 8.603595 1.2 0.2265894
v 9.274444 1.216938 0.1544332
v 8.897707 0.01771975 -0.1052556
v 9.274444 1.2 0.2265894
v 8.897707 0.01771975 -0.00525558
v 8.579354 1.216938 0.1544331
v 8.727298 1.433013 0.2499998
v 8.603595 1.2 0.2265894
v 8.727298 1.34641 0.2999998
v 9.4268 1.433013 0.2499999
v 9.274444 1.216938 0.1544332
v 9.4268 1.34641 0.2999999
v 9.274444 1.2 0.2265894
v 8.727298 1.433013 0.2499998
v 8.844847 1.5 0.8253715
v 8.727298 1.34641 0.2999998
v 8.825266 1.4 0.8253715
v 9.519066 1.5 0.8253716
v 9.4268 1.433013 0.2499999
v 9.519066 1.4 0.8253716
v 9.4268 1.34641 0.2999999
v 8.844847 1.5 0.8253715
v 8.78234 1.433013 1.263666
v 8.825266 1.4 0.8253715
v 8.78234 1.34641 1.213666
v 9.453367 1.433013 1.263666
v 9.519066 1.5 0.8253716
v 9.453367 1.34641 1.213666
v 9.519066 1.4 0.8253716
v 8.78234 1.433013 1.263666
v 8.683795 1.25 1.446679
v 8.78234 1.34641 1.213666
v 8.683795 1.2 1.360077
v 9.387707 1.25 1.446679
v 9.453367 1.433013 1.263666
v 9.387707 1.2 1.360077
v 9.453367 1.34641 1.213666
v 8.683795 1.25 1.446679
v 8.296098 0.01771975 1.164166
v 8.683795 1.2 1.360077
v 8.296098 0.01771975 1.064166
v 8.878126 0.01771975 1.164166
v 9.387707 1.25 1.446679
v 8.878126 0.01771975 1.064166
v 9.387707 1.2 1.360077

vn -4.815449E-08 0.2116429 -0.9773471
vn -4.951868E-08 0.2116429 -0.9773471
vn -4.652529E-08 0.2116429 -0.977347
vn -4.815449E-08 0.2116429 -0.9773471
vn 4.525113E-08 -0.1924347 0.9813098
vn 4.255304E-08 -0.1924346 0.9813098
vn 4.7592E-08 -0.1924347 0.9813098
vn 4.525113E-08 -0.1924347 0.9813098
vn 0 -1 0
vn 0 -1 0
vn 0 -0.9999999 0
vn 0 -1 0
vn -4.467866E-08 0.4044887 -0.914543
vn -4.464937E-08 0.4044887 -0.9145429
vn -4.470814E-08 0.4044888 -0.914543
vn -4.467866E-08 0.4044887 -0.914543
vn 4.349427E-08 -0.4482162 0.8939252
vn 4.321651E-08 -0.4482162 0.8939252
vn 4.376066E-08 -0.4482162 0.8939252
vn 4.349427E-08 -0.4482162 0.8939252
vn -5.387875E-09 0.9932908 -0.1156432
vn -5.104376E-09 0.9932908 -0.1156432
vn -5.661127E-09 0.9932908 -0.1156432
vn -5.387875E-09 0.9932908 -0.1156432
vn 4.872998E-09 -0.9948378 0.1014771
vn 4.787935E-09 -0.9948379 0.1014771
vn 4.958762E-09 -0.9948378 0.1014771
vn 4.872998E-09 -0.9948378 0.1014771
vn 9.144303E-09 0.9885213 0.1510818
vn 1.096159E-08 0.9885212 0.1510819
vn 7.335618E-09 0.9885213 0.1510818
vn 9.144303E-09 0.9885213 0.1510818
vn -8.024899E-09 -0.9906101 -0.1367174
vn -6.436702E-09 -0.9906101 -0.1367174
vn -9.666994E-09 -0.9906101 -0.1367173
vn -8.024899E-09 -0.9906101 -0.1367174
vn 4.990416E-08 0.7071072 0.7071062
vn 4.981471E-08 0.7071073 0.7071062
vn 4.999799E-08 0.7071074 0.7071063
vn 4.990416E-08 0.7071072 0.7071062
vn -5.006773E-08 -0.7071073 -0.7071062
vn -5.052565E-08 -0.7071073 -0.7071063
vn -4.96312E-08 -0.7071073 -0.7071063
vn -5.006773E-08 -0.7071073 -0.7071062
vn 5.801618E-08 -0.2234628 0.9747124
vn 4.544063E-08 -0.2234627 0.9747125
vn 6.841426E-08 -0.223463 0.9747124
vn 5.801618E-08 -0.2234628 0.9747124
vn -5.814301E-08 0.2427985 -0.9700767
vn -6.867701E-08 0.2427985 -0.9700767
vn -4.540308E-08 0.2427985 -0.9700767
vn -5.814301E-08 0.2427985 -0.9700767
vn 0 -1 0
vn 0 -1 0
vn 0 -0.9999999 0
vn 0 -1 0
vn -0.1749531 0.5557135 0.4488261
vn -0.1338222 0.2997776 0.789683
vn -0.1790801 0.6977715 1.067401E-08
vn -0.1749531 0.5557135 0.4488261
vn 0.1564525 -0.7762277 -0.07637049
vn 0.1556715 -0.7824717 -9.278746E-09
vn 0.1560489 -0.7605938 -0.1785411
vn 0.1564525 -0.7762277 -0.07637049
vn -0.07804876 0.5879897 0.7461917
vn -0.07671632 0.4758765 0.8242422
vn -0.07708997 0.7465113 0.5896056
vn -0.07804876 0.5879897 0.7461917
vn 0.07543876 -0.7272802 -0.6164473
vn 0.08901054 -0.9097415 -0.2135519
vn 0.05474846 -0.4878632 -0.8450036
vn 0.07543876 -0.7272802 -0.6164473
vn -0.1819926 0.4452512 0.5213541
vn -0.1708739 0.5353386 0.496232
vn -0.193944 0.3155042 0.5464692
vn -0.1819926 0.4452512 0.5213541
vn 0.2072665 -0.1447189 -0.540098
vn 0.2053834 -0.2850799 -0.4937727
vn 0.2045689 0 -0.5748257
vn 0.2072665 -0.1447189 -0.540098
vn -0.2059528 0.4411626 -0.3559642
vn -0.2138717 0.2589121 -0.4484496
vn -0.190342 0.5963308 -0.2543791
vn -0.2059528 0.4411626 -0.3559642
vn 0.2111867 -0.1385111 0.5169309
vn 0.2144124 0 0.5142345
vn 0.2025163 -0.2931697 0.5077853
vn 0.2111867 -0.1385111 0.5169309
vn -0.1271875 0.6087584 -0.6087584
vn -0.1338978 0.731339 -0.4222385
vn -0.1131182 0.4458888 -0.7723028
vn -0.1271875 0.6087584 -0.6087584
vn 0.1658841 -0.5290178 0.5290178
vn 0.1723659 -0.36216 0.6272799
vn 0.15146 -0.6889982 0.3977931
vn 0.1658841 -0.5290178 0.5290178
vn -0.1438728 0.7899418 -0.2116641
vn -0.1555302 0.7829212 9.270323E-09
vn -0.1229501 0.7540552 -0.4353538
vn -0.1438728 0.7899418 -0.2116641
vn 0.1179991 -0.8515608 0.2281746
vn 0.103397 -0.7884855 0.4552315
vn 0.1254337 -0.8650215 -7.47643E-09
vn 0.1179991 -0.8515608 0.2281746

vt 0.01717377 -0.9823054
vt -1.489772 0.2447083
vt 2.345289 -0.9823054
vt 1.290586 0.2447083
vt 1.489772 0.2398656
vt -0.01717377 -0.9649326
vt -1.193623 0.2398656
vt -2.345289 -0.9649326
vt -0.1052558 2.345289
vt -0.005255729 2.345289
vt -0.1052556 0.01717377
vt -0.005255581 0.01717377
vt -1.489772 0.2608655
vt -2.099196 0.4971308
vt 1.290586 0.2608655
vt 0.698812 0.4971308
vt 2.099196 0.4441296
vt 1.489772 0.2803461
vt -0.698812 0.4441296
vt -1.193623 0.2803461
vt -0.2983976 -2.099196
vt -0.8776557 -2.468261
vt -0.2983975 0.698812
vt -0.8776556 0.2286134
vt 0.8617018 -2.468261
vt 0.3336039 -2.099196
vt 0.8617017 0.306937
vt 0.3336038 0.698812
vt -0.7403564 -2.468261
vt -1.183741 -2.205466
vt -0.7403564 0.2286134
vt -1.183741 0.4786429
vt 1.15491 -2.205466
vt 0.7629345 -2.468261
vt 1.15491 0.4786429
vt 0.7629344 0.306937
vt -0.5873618 -2.205466
vt -0.846181 -1.942827
vt -0.5873618 0.478643
vt -0.846181 0.8728232
vt 0.820299 -1.942827
vt 0.6132436 -2.205466
vt 0.820299 0.8728232
vt 0.6132437 0.478643
vt 1.942826 0.5669572
vt -0.09549718 -0.6972929
vt -0.8728232 0.5669572
vt -2.423612 -0.697293
vt 0.09549708 -0.6945095
vt -1.942827 0.5242397
vt 2.423612 -0.6945095
vt 0.8728231 0.5242398
vt 1.064166 2.423612
vt 1.164166 2.423612
vt 1.064166 0.09549713
vt 1.164166 0.09549713
vt -0.1052558 -2.286456
vt 0.1544331 -0.6894204
vt -0.005255729 -2.286456
vt 0.2265893 -0.6381037
vt 0.1007703 -1.310938
vt 0.1220075 0.6322539
vt 0.1748879 -1.310938
vt 0.2193613 0.6178259
vt 0.0341463 1.114085
vt 0.1108887 0.4815279
vt -0.03029665 1.01044
vt 0.0153539 0.491966
vt -2.059146 0.6088994
vt -1.453533 0.363029
vt -2.076145 0.5103548
vt -1.478065 0.3157645
vt -0.226364 0.174475
vt 0.5163247 0.2454691
vt -0.1866659 0.08269233
vt 0.4687065 0.1305171
vt -2.027377 0.5
vt -1.343811 0.4330127
vt -2.027377 0.4
vt -1.385898 0.3464102
vt 0.8464072 0.4828959
vt 1.348731 0.4005841
vt 0.8785931 0.3600193
vt 1.303148 0.3181649
vt -0.04250054 1.099232
vt 0.4682001 1.168771
vt 0.001292298 1.009331
vt 0.4682001 1.07244
vt 1.132792 0.7035844
vt 1.558943 0.5016917
vt 1.10325 0.6080477
vt 1.507775 0.4268658
vt -0.3772734 1.695605
vt -0.09311834 1.9306
vt -0.3006045 1.631403
vt -0.04885355 1.84857
vt -1.377861 1.009232
vt -0.5170578 2.815414
vt -1.277861 1.009232
vt -0.4304551 2.789781
vt 1.164166 0.5899155
vt 1.446679 -1.791949
vt 1.064166 0.5899155
vt 1.360077 -1.766081

g Ext 18 Outside Door Left
usemtl Default_Prototype
f 3/3/3 4/4/4 2/2/2 1/1/1
f 7/7/7 8/8/8 6/6/6 5/5/5
f 11/11/11 12/12/12 10/10/10 9/9/9
f 15/15/15 16/16/16 14/14/14 13/13/13
f 19/19/19 20/20/20 18/18/18 17/17/17
f 23/23/23 24/24/24 22/22/22 21/21/21
f 27/27/27 28/28/28 26/26/26 25/25/25
f 31/31/31 32/32/32 30/30/30 29/29/29
f 35/35/35 36/36/36 34/34/34 33/33/33
f 39/39/39 40/40/40 38/38/38 37/37/37
f 43/43/43 44/44/44 42/42/42 41/41/41
f 47/47/47 48/48/48 46/46/46 45/45/45
f 51/51/51 52/52/52 50/50/50 49/49/49
f 55/55/55 56/56/56 54/54/54 53/53/53
f 59/59/59 60/60/60 58/58/58 57/57/57
f 63/63/63 64/64/64 62/62/62 61/61/61
f 67/67/67 68/68/68 66/66/66 65/65/65
f 71/71/71 72/72/72 70/70/70 69/69/69
f 75/75/75 76/76/76 74/74/74 73/73/73
f 79/79/79 80/80/80 78/78/78 77/77/77
f 83/83/83 84/84/84 82/82/82 81/81/81
f 87/87/87 88/88/88 86/86/86 85/85/85
f 91/91/91 92/92/92 90/90/90 89/89/89
f 95/95/95 96/96/96 94/94/94 93/93/93
f 99/99/99 100/100/100 98/98/98 97/97/97
f 103/103/103 104/104/104 102/102/102 101/101/101

