# Exported from ProBuilder
# http://www.procore3d.com/probuilder
# 5/31/2018 2:15:45 PM

mtllib ./Feet_Symbol.mtl
o Feet_Symbol

g Feet_Symbol
v 0.6600418 0.0111289 -0.7967398
v 0.7182808 0 -1.028889
v 0.5315704 0 -1.233067
v 0.4208355 0 -0.757354
v 0.06794548 0 -1.349203
v 0.155304 0 -0.807953
v -0.1455975 0 -1.061758
v 0.5338573 0.005871296 -0.5168009
v 0.0995121 0 -0.6115094
v 0.3212757 -0.003815651 0.02332401
v -0.2232494 0 -0.2739499
v 0.09048653 0 0.06032348
v -0.155304 0 -0.01941311
v -0.2232494 0.1538382 -0.2739499
v 0.09048653 0.1538382 0.06032348
v -0.155304 0.1538382 -0.01941311
v 0.3212757 0.1500225 0.02332401
v 0.0995121 0.1538382 -0.6115094
v 0.5338573 0.1597095 -0.5168009
v 0.155304 0.1538382 -0.807953
v 0.4208355 0.1538382 -0.757354
v 0.06794548 0.1538382 -1.349203
v -0.1455975 0.1538382 -1.061758
v 0.5315704 0.1538382 -1.233067
v 0.6600418 0.1649671 -0.7967398
v 0.7182808 0.1538382 -1.028889
v 0.09048653 0 0.06032348
v -0.155304 0 -0.01941311
v 0.09048653 0.1538382 0.06032348
v -0.155304 0.1538382 -0.01941311
v -0.155304 0 -0.01941311
v -0.2232494 0 -0.2739499
v -0.155304 0.1538382 -0.01941311
v -0.2232494 0.1538382 -0.2739499
v 0.3212757 -0.003815651 0.02332401
v 0.09048653 0 0.06032348
v 0.3212757 0.1500225 0.02332401
v 0.09048653 0.1538382 0.06032348
v -0.2232494 0 -0.2739499
v 0.0995121 0 -0.6115094
v -0.2232494 0.1538382 -0.2739499
v 0.0995121 0.1538382 -0.6115094
v 0.5338573 0.005871296 -0.5168009
v 0.3212757 -0.003815651 0.02332401
v 0.5338573 0.1597095 -0.5168009
v 0.3212757 0.1500225 0.02332401
v 0.0995121 0 -0.6115094
v 0.155304 0 -0.807953
v 0.0995121 0.1538382 -0.6115094
v 0.155304 0.1538382 -0.807953
v 0.4208355 0 -0.757354
v 0.5338573 0.005871296 -0.5168009
v 0.4208355 0.1538382 -0.757354
v 0.5338573 0.1597095 -0.5168009
v 0.155304 0 -0.807953
v -0.1455975 0 -1.061758
v 0.155304 0.1538382 -0.807953
v -0.1455975 0.1538382 -1.061758
v -0.1455975 0 -1.061758
v 0.06794548 0 -1.349203
v -0.1455975 0.1538382 -1.061758
v 0.06794548 0.1538382 -1.349203
v 0.06794548 0 -1.349203
v 0.5315704 0 -1.233067
v 0.06794548 0.1538382 -1.349203
v 0.5315704 0.1538382 -1.233067
v 0.6600418 0.0111289 -0.7967398
v 0.4208355 0 -0.757354
v 0.6600418 0.1649671 -0.7967398
v 0.4208355 0.1538382 -0.757354
v 0.5315704 0 -1.233067
v 0.7182808 0 -1.028889
v 0.5315704 0.1538382 -1.233067
v 0.7182808 0.1538382 -1.028889
v 0.7182808 0 -1.028889
v 0.6600418 0.0111289 -0.7967398
v 0.7182808 0.1538382 -1.028889
v 0.6600418 0.1649671 -0.7967398

vn 0.0183446 -0.9996297 0.02009508
vn -0.04107398 -0.9984498 0.03756009
vn 0.007590659 -0.9999366 0.008314974
vn 0.009248207 -0.999944 0.005166056
vn 0 -1 0
vn 0.001997153 -0.9999883 0.004400108
vn 0 -1 0
vn 0.01225428 -0.9999214 -0.002658454
vn 0.006325198 -0.9999609 -0.006180084
vn 0.002447132 -0.9999855 -0.004803464
vn -0.006022285 -0.9999819 -8.090492E-05
vn -0.008741477 -0.9999282 0.00820441
vn 0 -1 0
vn 0.006022285 0.9999819 8.090492E-05
vn 0.008741477 0.9999282 -0.008204409
vn 0 1 0
vn -0.002447132 0.9999855 0.004803464
vn -0.006325197 0.9999609 0.006180083
vn -0.01225428 0.9999214 0.002658454
vn -0.001997153 0.9999883 -0.004400108
vn -0.009248207 0.999944 -0.005166056
vn 0 1 0
vn 0 1 0
vn -0.007590658 0.9999366 -0.008314975
vn -0.0183446 0.9996297 -0.02009508
vn 0.04107399 0.9984499 -0.03756009
vn -0.3085774 0 0.9511992
vn -0.3085774 0 0.9511992
vn -0.3085774 0 0.9511992
vn -0.3085774 0 0.9511992
vn -0.9661697 0 0.2579072
vn -0.9661697 0 0.2579072
vn -0.9661697 0 0.2579072
vn -0.9661697 0 0.2579072
vn 0.1582958 0 0.9873918
vn 0.1582958 0 0.9873918
vn 0.1582958 0 0.9873918
vn 0.1582958 0 0.9873918
vn -0.7227719 0 -0.6910867
vn -0.7227719 0 -0.6910867
vn -0.7227719 0 -0.6910867
vn -0.7227719 0 -0.6910867
vn 0.9305228 0 0.3662339
vn 0.9305228 0 0.3662339
vn 0.9305228 0 0.3662339
vn 0.9305228 0 0.3662339
vn -0.9619558 0 -0.2732047
vn -0.9619558 0 -0.2732047
vn -0.9619558 0 -0.2732047
vn -0.9619558 0 -0.2732047
vn 0.9050789 0 -0.4252436
vn 0.9050789 0 -0.4252436
vn 0.9050789 0 -0.4252436
vn 0.9050789 0 -0.4252436
vn -0.6447518 0 0.764392
vn -0.6447518 0 0.764392
vn -0.6447518 0 0.764392
vn -0.6447518 0 0.764392
vn -0.8027275 0 -0.5963462
vn -0.8027275 0 -0.5963462
vn -0.8027275 0 -0.5963462
vn -0.8027275 0 -0.5963462
vn 0.2429891 0 -0.970029
vn 0.2429891 0 -0.970029
vn 0.2429891 0 -0.970029
vn 0.2429891 0 -0.970029
vn 0.1624643 0 0.9867145
vn 0.1624643 0 0.9867145
vn 0.1624643 0 0.9867145
vn 0.1624643 0 0.9867145
vn 0.7379686 0 -0.6748351
vn 0.7379686 0 -0.6748351
vn 0.7379686 0 -0.6748351
vn 0.7379686 0 -0.6748351
vn 0.9699439 0 0.2433286
vn 0.9699439 0 0.2433286
vn 0.9699439 0 0.2433286
vn 0.9699439 0 0.2433286

vt 0.6600888 -0.7967415
vt 0.718272 -1.028888
vt 0.531564 -1.233066
vt 0.4208304 -0.7573535
vt 0.06794465 -1.349203
vt 0.1553021 -0.8079528
vt -0.1455957 -1.061758
vt 0.5338799 -0.5168017
vt 0.09951089 -0.6115093
vt 0.3212529 0.02332526
vt -0.2232467 -0.2739501
vt 0.09048542 0.06032358
vt -0.1553021 -0.01941329
vt 0.2224863 -0.2739857
vt -0.09124582 0.06028803
vt 0.1545417 -0.01944884
vt -0.3220133 0.02328971
vt -0.1002713 -0.6115449
vt -0.5346403 -0.5168372
vt -0.1560625 -0.8079883
vt -0.4215908 -0.7573891
vt -0.06870505 -1.349239
vt 0.1448353 -1.061794
vt -0.5323244 -1.233102
vt -0.6608492 -0.7967771
vt -0.7190325 -1.028924
vt 0.1046852 0
vt -0.1537154 0
vt 0.1046852 0.1538382
vt -0.1537154 0.1538382
vt -0.05881037 0
vt -0.3222597 0
vt -0.05881037 0.1538382
vt -0.3222597 0.1538382
vt 0.3135329 -0.003815651
vt 0.07979669 0
vt 0.3135329 0.1500225
vt 0.07979669 0.1538382
vt -0.04371854 0
vt -0.5107533 0
vt -0.04371854 0.1538382
vt -0.5107533 0.1538382
vt 0.6764117 0.005871296
vt 0.09595855 -0.003815651
vt 0.6764117 0.1597095
vt 0.09595855 0.1500225
vt -0.6154323 0
vt -0.8196449 0
vt -0.6154323 0.1538382
vt -0.8196449 0.1538382
vt 0.5065076 0
vt 0.2407261 0.005871296
vt 0.5065076 0.1538382
vt 0.2407261 0.1597095
vt -0.402216 0
vt -0.7958641 0
vt -0.402216 0.1538382
vt -0.7958641 0.1538382
vt -0.765476 0
vt -1.123562 0
vt -0.765476 0.1538382
vt -1.123562 0.1538382
vt 0.2619327 0
vt -0.2160169 0
vt 0.2619327 0.1538382
vt -0.2160169 0.1538382
vt 0.7807145 0.0111289
vt 0.5382874 0
vt 0.7807145 0.1649671
vt 0.5382874 0.1538382
vt 0.5512422 0
vt 0.2745667 0
vt 0.5512422 0.1538382
vt 0.2745667 0.1538382
vt 1.172743 0
vt 0.9334 0.0111289
vt 1.172743 0.1538382
vt 0.9334 0.1649671

g Feet_Symbol
usemtl Gris_verdoso_Field_Border
f 3/3/3 2/2/2 1/1/1
f 4/4/4 3/3/3 1/1/1
f 5/5/5 3/3/3 4/4/4
f 5/5/5 4/4/4 6/6/6
f 5/5/5 6/6/6 7/7/7
f 6/6/6 4/4/4 8/8/8
f 9/9/9 6/6/6 8/8/8
f 9/9/9 8/8/8 10/10/10
f 11/11/11 9/9/9 10/10/10
f 10/10/10 12/12/12 11/11/11
f 11/11/11 12/12/12 13/13/13
f 16/16/16 15/15/15 14/14/14
f 14/14/14 15/15/15 17/17/17
f 17/17/17 18/18/18 14/14/14
f 17/17/17 19/19/19 18/18/18
f 19/19/19 20/20/20 18/18/18
f 19/19/19 21/21/21 20/20/20
f 23/23/23 20/20/20 22/22/22
f 20/20/20 21/21/21 22/22/22
f 21/21/21 24/24/24 22/22/22
f 25/25/25 24/24/24 21/21/21
f 25/25/25 26/26/26 24/24/24
f 29/29/29 28/28/28 27/27/27
f 29/29/29 30/30/30 28/28/28
f 33/33/33 32/32/32 31/31/31
f 33/33/33 34/34/34 32/32/32
f 37/37/37 36/36/36 35/35/35
f 37/37/37 38/38/38 36/36/36
f 41/41/41 40/40/40 39/39/39
f 41/41/41 42/42/42 40/40/40
f 45/45/45 44/44/44 43/43/43
f 45/45/45 46/46/46 44/44/44
f 49/49/49 48/48/48 47/47/47
f 49/49/49 50/50/50 48/48/48
f 53/53/53 52/52/52 51/51/51
f 53/53/53 54/54/54 52/52/52
f 57/57/57 56/56/56 55/55/55
f 57/57/57 58/58/58 56/56/56
f 61/61/61 60/60/60 59/59/59
f 61/61/61 62/62/62 60/60/60
f 65/65/65 64/64/64 63/63/63
f 65/65/65 66/66/66 64/64/64
f 69/69/69 68/68/68 67/67/67
f 69/69/69 70/70/70 68/68/68
f 73/73/73 72/72/72 71/71/71
f 73/73/73 74/74/74 72/72/72
f 77/77/77 76/76/76 75/75/75
f 77/77/77 78/78/78 76/76/76

