# Exported from ProBuilder
# http://www.procore3d.com/probuilder
# 5/31/2018 2:15:57 PM

mtllib ./Impact_Symbol.mtl
o Impact_Symbol

g Impact_Symbol
v 0.3154202 0 -0.09350109
v 0.1568813 0 -0.3771014
v 0.02551079 0 -0.2653021
v -0.1232643 0 -0.2689387
v 0.06103897 0 -0.5682788
v -0.1456757 0 -0.5490834
v -0.02838516 0 -0.9076685
v -0.2801437 0 -0.4146137
v -0.4187431 0 -0.626375
v -0.4706421 0 -0.190498
v 0.4260559 0 -0.5874513
v -0.0608139 0 0.07518005
v -0.1232643 0.1999874 -0.2689387
v 0.02551079 0.1999874 -0.2653021
v -0.0608139 0.1999874 0.07518005
v 0.06103897 0.1999874 -0.5682788
v 0.4260559 0.1999874 -0.5874513
v 0.1568813 0.1999874 -0.3771014
v -0.4706421 0.1999874 -0.190498
v -0.2801437 0.1999874 -0.4146137
v -0.4187431 0.1999874 -0.626375
v -0.1456757 0.1999874 -0.5490834
v -0.02838516 0.1999874 -0.9076685
v 0.3154202 0.1999874 -0.09350109
v 0.02551079 0 -0.2653021
v -0.0608139 0 0.07518005
v 0.02551079 0.1999874 -0.2653021
v -0.0608139 0.1999874 0.07518005
v -0.0608139 0 0.07518005
v -0.1232643 0 -0.2689387
v -0.0608139 0.1999874 0.07518005
v -0.1232643 0.1999874 -0.2689387
v 0.06103897 0 -0.5682788
v 0.4260559 0 -0.5874513
v 0.06103897 0.1999874 -0.5682788
v 0.4260559 0.1999874 -0.5874513
v 0.4260559 0 -0.5874513
v 0.1568813 0 -0.3771014
v 0.4260559 0.1999874 -0.5874513
v 0.1568813 0.1999874 -0.3771014
v -0.4706421 0 -0.190498
v -0.2801437 0 -0.4146137
v -0.4706421 0.1999874 -0.190498
v -0.2801437 0.1999874 -0.4146137
v -0.1232643 0 -0.2689387
v -0.4706421 0 -0.190498
v -0.1232643 0.1999874 -0.2689387
v -0.4706421 0.1999874 -0.190498
v -0.4187431 0 -0.626375
v -0.1456757 0 -0.5490834
v -0.4187431 0.1999874 -0.626375
v -0.1456757 0.1999874 -0.5490834
v -0.2801437 0 -0.4146137
v -0.4187431 0 -0.626375
v -0.2801437 0.1999874 -0.4146137
v -0.4187431 0.1999874 -0.626375
v -0.02838516 0 -0.9076685
v 0.06103897 0 -0.5682788
v -0.02838516 0.1999874 -0.9076685
v 0.06103897 0.1999874 -0.5682788
v -0.1456757 0 -0.5490834
v -0.02838516 0 -0.9076685
v -0.1456757 0.1999874 -0.5490834
v -0.02838516 0.1999874 -0.9076685
v 0.1568813 0 -0.3771014
v 0.3154202 0 -0.09350109
v 0.1568813 0.1999874 -0.3771014
v 0.3154202 0.1999874 -0.09350109
v 0.3154202 0 -0.09350109
v 0.02551079 0 -0.2653021
v 0.3154202 0.1999874 -0.09350109
v 0.02551079 0.1999874 -0.2653021

vn 0 -1 0
vn 0 -1 0
vn 0 -1 0
vn 0 -1 0
vn 0 -1 0
vn 0 -0.9999999 0
vn 0 -1 0
vn 0 -1 0
vn 0 -1 0
vn 0 -1 0
vn 0 -0.9999999 0
vn 0 -1 0
vn 0 1 0
vn 0 0.9999999 0
vn 0 1 0
vn 0 1 0
vn 0 0.9999999 0
vn 0 1 0
vn 0 1 0
vn 0 1 0
vn 0 1 0
vn 0 0.9999999 0
vn 0 1 0
vn 0 1 0
vn 0.9693305 0 0.2457608
vn 0.9693305 0 0.2457608
vn 0.9693305 0 0.2457608
vn 0.9693305 0 0.2457608
vn -0.9839286 0 0.1785626
vn -0.9839286 0 0.1785626
vn -0.9839286 0 0.1785626
vn -0.9839286 0 0.1785626
vn -0.05245279 0 -0.9986234
vn -0.05245279 0 -0.9986234
vn -0.05245279 0 -0.9986234
vn -0.05245279 0 -0.9986234
vn 0.6157482 0 0.787943
vn 0.6157482 0 0.787943
vn 0.6157482 0 0.787943
vn 0.6157482 0 0.787943
vn -0.7619393 0 -0.6476484
vn -0.7619393 0 -0.6476484
vn -0.7619393 0 -0.6476484
vn -0.7619393 0 -0.6476484
vn 0.2202623 0 0.9754407
vn 0.2202623 0 0.9754407
vn 0.2202623 0 0.9754407
vn 0.2202623 0 0.9754407
vn 0.2723497 0 -0.9621983
vn 0.2723497 0 -0.9621983
vn 0.2723497 0 -0.9621983
vn 0.2723497 0 -0.9621983
vn -0.8367159 0 0.5476372
vn -0.8367159 0 0.5476372
vn -0.8367159 0 0.5476372
vn -0.8367159 0 0.5476372
vn 0.9669967 0 -0.2547892
vn 0.9669967 0 -0.2547892
vn 0.9669967 0 -0.2547892
vn 0.9669967 0 -0.2547892
vn -0.9504477 0 -0.3108843
vn -0.9504477 0 -0.3108843
vn -0.9504477 0 -0.3108843
vn -0.9504477 0 -0.3108843
vn 0.8728697 0 -0.4879534
vn 0.8728697 0 -0.4879534
vn 0.8728697 0 -0.4879534
vn 0.8728697 0 -0.4879534
vn -0.5098086 0 0.8602878
vn -0.5098086 0 0.8602878
vn -0.5098086 0 0.8602878
vn -0.5098086 0 0.8602878

vt 0.3154202 -0.09350109
vt 0.1568813 -0.3771014
vt 0.02551079 -0.2653021
vt -0.1232643 -0.2689387
vt 0.06103897 -0.5682788
vt -0.1456757 -0.5490834
vt -0.02838516 -0.9076685
vt -0.2801437 -0.4146137
vt -0.4187431 -0.626375
vt -0.4706421 -0.190498
vt 0.4260559 -0.5874513
vt -0.0608139 0.07518005
vt 0.1232643 -0.2689387
vt -0.02551079 -0.2653021
vt 0.0608139 0.07518005
vt -0.06103897 -0.5682788
vt -0.4260559 -0.5874513
vt -0.1568813 -0.3771014
vt 0.4706421 -0.190498
vt 0.2801437 -0.4146137
vt 0.4187431 -0.626375
vt 0.1456757 -0.5490834
vt 0.02838516 -0.9076685
vt -0.3154202 -0.09350109
vt 0.2634349 0
vt -0.08781999 0
vt 0.2634349 0.1999874
vt -0.08781999 0.1999874
vt 0.06311271 0
vt -0.2866268 0
vt 0.06311271 0.1999874
vt -0.2866268 0.1999874
vt -0.09076276 0
vt -0.4562829 0
vt -0.09076276 0.1999874
vt -0.4562829 0.1999874
vt 0.6974298 0
vt 0.3558131 0
vt 0.6974298 0.1999874
vt 0.3558131 0.1999874
vt 0.1596627 0
vt -0.1344759 0
vt 0.1596627 0.1999874
vt -0.1344759 0.1999874
vt -0.06099999 0
vt -0.4171239 0
vt -0.06099999 0.1999874
vt -0.4171239 0.1999874
vt 0.573507 0
vt 0.2897116 0
vt 0.573507 0.1999874
vt 0.2897116 0.1999874
vt -0.500331 0
vt -0.7534172 0
vt -0.500331 0.1999874
vt -0.7534172 0.1999874
vt 0.8849446 0
vt 0.5339716 0
vt 0.8849446 0.1999874
vt 0.5339716 0.1999874
vt -0.4765868 0
vt -0.853867 0
vt -0.4765868 0.1999874
vt -0.853867 0.1999874
vt 0.2526096 0
vt -0.07229605 0
vt 0.2526096 0.1999874
vt -0.07229605 0.1999874
vt 0.2236845 0
vt -0.1133066 0
vt 0.2236845 0.1999874
vt -0.1133066 0.1999874

g Impact_Symbol
usemtl Gris_verdoso_Field_Border
f 3/3/3 2/2/2 1/1/1
f 4/4/4 2/2/2 3/3/3
f 4/4/4 5/5/5 2/2/2
f 6/6/6 5/5/5 4/4/4
f 7/7/7 5/5/5 6/6/6
f 8/8/8 6/6/6 4/4/4
f 9/9/9 6/6/6 8/8/8
f 10/10/10 8/8/8 4/4/4
f 5/5/5 11/11/11 2/2/2
f 4/4/4 3/3/3 12/12/12
f 15/15/15 14/14/14 13/13/13
f 18/18/18 17/17/17 16/16/16
f 13/13/13 20/20/20 19/19/19
f 20/20/20 22/22/22 21/21/21
f 13/13/13 22/22/22 20/20/20
f 22/22/22 16/16/16 23/23/23
f 13/13/13 16/16/16 22/22/22
f 18/18/18 16/16/16 13/13/13
f 14/14/14 18/18/18 13/13/13
f 24/24/24 18/18/18 14/14/14
f 27/27/27 26/26/26 25/25/25
f 27/27/27 28/28/28 26/26/26
f 31/31/31 30/30/30 29/29/29
f 31/31/31 32/32/32 30/30/30
f 35/35/35 34/34/34 33/33/33
f 35/35/35 36/36/36 34/34/34
f 39/39/39 38/38/38 37/37/37
f 39/39/39 40/40/40 38/38/38
f 43/43/43 42/42/42 41/41/41
f 43/43/43 44/44/44 42/42/42
f 47/47/47 46/46/46 45/45/45
f 47/47/47 48/48/48 46/46/46
f 51/51/51 50/50/50 49/49/49
f 51/51/51 52/52/52 50/50/50
f 55/55/55 54/54/54 53/53/53
f 55/55/55 56/56/56 54/54/54
f 59/59/59 58/58/58 57/57/57
f 59/59/59 60/60/60 58/58/58
f 63/63/63 62/62/62 61/61/61
f 63/63/63 64/64/64 62/62/62
f 67/67/67 66/66/66 65/65/65
f 67/67/67 68/68/68 66/66/66
f 71/71/71 70/70/70 69/69/69
f 71/71/71 72/72/72 70/70/70

