# Exported from ProBuilder
# http://www.procore3d.com/probuilder
# 4/18/2018 11:57:29 AM

mtllib ./Tile1.mtl
o Tile1

g TileLight
v -18 0 4
v -18 0 4.5
v -18.5 0 4
v -18.5 0 4.5
v -18 0 4.5
v -18 0 5
v -18.5 0 4.5
v -18.5 0 5
v -18.5 0 4
v -18.5 0 4.5
v -19 0 4
v -19 0 4.5
v -18.5 0 4.5
v -18.5 0 5
v -19 0 4.5
v -19 0 5

vn 0 1 0
vn 0 1 0
vn 0 1 0
vn 0 1 0
vn 0 1 0
vn 0 1 0
vn 0 1 0
vn 0 1 0
vn 0 1 0
vn 0 1 0
vn 0 1 0
vn 0 1 0
vn 0 1 0
vn 0 1 0
vn 0 1 0
vn 0 1 0

vt 0 0
vt 0 0.5
vt 0.5 0
vt 0.5 0.5
vt 0 0.5
vt 0 1
vt 0.5 0.5
vt 0.5 1
vt 0.5 0
vt 0.5 0.5
vt 1 0
vt 1 0.5
vt 0.5 0.5
vt 0.5 1
vt 1 0.5
vt 1 1

g TileLight
usemtl TileLight
f 3/3/3 4/4/4 2/2/2 1/1/1
f 7/7/7 8/8/8 6/6/6 5/5/5
f 11/11/11 12/12/12 10/10/10 9/9/9
f 15/15/15 16/16/16 14/14/14 13/13/13

