# Exported from ProBuilder
# http://www.procore3d.com/probuilder
# 4/27/2018 12:45:54 PM

mtllib ./Ext_10_Low_box.mtl
o Ext 10 Low box

g Ext 10 Low box
v -4.465439 0.008908093 -4.229545
v -5.687282 0.008908093 -4.224966
v -4.522834 0.6482587 -4.207938
v -5.687282 0.6482587 -4.207938
v -5.609919 0.008908093 -5.243928
v -4.465439 0.008908093 -5.248208
v -5.747275 0.6482587 -4.969139
v -4.522834 0.6482587 -4.973418
v -4.465439 0.008908093 -4.229545
v -4.522834 0.6482587 -4.973418
v -4.522834 0.6482587 -4.207938
v -4.522834 0.6482587 -4.207938
v -5.687282 0.6482587 -4.207938
v -4.522834 0.6482587 -4.973418
v -5.747275 0.6482587 -4.969139
v -5.687282 0.008908093 -4.224966
v -4.465439 0.008908093 -4.229545
v -5.609919 0.008908093 -5.243928
v -4.465439 0.008908093 -5.248208
v -4.465439 0.008908093 -4.229545
v -4.522834 0.6482587 -4.973418
v -4.465439 0.008908093 -5.248208
v -5.747275 0.6482587 -4.969139
v -5.687282 0.6482587 -4.207938
v -6.062131 0.6482587 -4.965541
v -6.062131 0.6482587 -4.207938
v -5.687282 0.008908093 -4.224966
v -5.609919 0.008908093 -5.243928
v -6.062131 0.008908093 -4.224966
v -5.924774 0.008908093 -5.240331
v -5.609919 0.008908093 -5.243928
v -5.747275 0.6482587 -4.969139
v -5.924774 0.008908093 -5.240331
v -6.062131 0.6482587 -4.965541
v -5.687282 0.6482587 -4.207938
v -5.687282 0.008908093 -4.224966
v -6.062131 0.6482587 -4.207938
v -6.062131 0.008908093 -4.224966
v -6.062131 0.6482587 -4.965541
v -6.062131 0.6482587 -4.207938
v -7.049884 0.6482587 -4.207938
v -6.062131 0.008908093 -4.224966
v -5.924774 0.008908093 -5.240331
v -7.049884 0.008908093 -4.224966
v -5.947247 0.008908093 -5.582569
v -6.112849 0.6482587 -5.360722
v -7.0516 0.008908093 -5.581237
v -6.947654 0.6482587 -5.359389
v -6.062131 0.6482587 -4.207938
v -6.062131 0.008908093 -4.224966
v -7.049884 0.6482587 -4.207938
v -7.049884 0.008908093 -4.224966
v -5.924774 0.008908093 -5.240331
v -6.062131 0.6482587 -4.965541
v -5.947247 0.008908093 -5.582569
v -6.112849 0.6482587 -5.360722
v -7.049884 0.008908093 -4.224966
v -5.924774 0.008908093 -5.240331
v -7.0516 0.008908093 -5.581237
v -5.947247 0.008908093 -5.582569
v -6.062131 0.6482587 -4.965541
v -7.049884 0.6482587 -4.207938
v -6.112849 0.6482587 -5.360722
v -6.947654 0.6482587 -5.359389
v -7.049884 0.6482587 -4.207938
v -7.049884 0.008908093 -4.224966
v -6.947654 0.6482587 -5.359389
v -7.0516 0.008908093 -5.581237

vn 0.001918032 -0.03011349 0.9995447
vn 0.003746318 -0.02662268 0.9996386
vn 0 -0.03377508 0.9994295
vn 0.001918032 -0.03011349 0.9995447
vn -0.003320171 0.3944399 -0.9189157
vn -0.003435883 0.3946062 -0.9188439
vn -0.003211998 0.3942844 -0.9189829
vn -0.003320171 0.3944399 -0.9189157
vn 0.9959949 0.08941121 0
vn 0.9959949 0.08941121 0
vn 0.9959949 0.08941121 0
vn 0 1 0
vn 0 0.9999999 0
vn 0 0.9999999 0
vn 0 1 0
vn 0 -1 0
vn 0 -1 0
vn 0 -1 0
vn 0 -1 0
vn 0.9959947 0.0894112 0
vn 0.9959947 0.0894112 0
vn 0.9959947 0.0894112 0
vn 0 1 0
vn 0 1 0
vn 0 0.9999999 0
vn 0 1 0
vn 0 -1 0
vn 0 -0.9999999 0
vn 0 -1 0
vn 0 -1 0
vn -0.01050542 0.3929413 -0.9195036
vn -0.01050541 0.3929412 -0.9195036
vn -0.01050543 0.3929413 -0.9195036
vn -0.01050542 0.3929413 -0.9195036
vn 0 -0.02662286 0.9996455
vn 0 -0.02662286 0.9996455
vn 0 -0.02662286 0.9996455
vn 0 -0.02662286 0.9996455
vn 0 1 0
vn 0 1 0
vn 0 1 0
vn 0 -1 0
vn 0 -1 0
vn 0 -1 0
vn -0.001298179 0.3277588 -0.9447606
vn -0.001507923 0.327466 -0.9448618
vn -0.001139659 0.3279801 -0.944684
vn -0.001298179 0.3277588 -0.9447606
vn 0 -0.02662286 0.9996455
vn 0 -0.02662286 0.9996455
vn 0 -0.02662286 0.9996455
vn 0 -0.02662286 0.9996455
vn 0.9597044 0.2643755 -0.09525312
vn 0.9581029 0.2586863 -0.1229644
vn 0.960596 0.2706968 -0.06307627
vn 0.9597044 0.2643755 -0.09525312
vn 0 -1 0
vn 0 -1 0
vn 0 -1 0
vn 0 -1 0
vn 0 1 0
vn 0 1 0
vn 0 0.9999999 0
vn 0 1 0
vn -0.9952894 0.08836026 -0.03989257
vn -0.9999993 -3.371279E-05 0.001265861
vn -0.9781002 0.1891534 -0.08683912
vn -0.9952894 0.08836026 -0.03989257

vt 1.290577 -0.297074
vt 0.06872553 -0.297074
vt 1.233101 0.3426344
vt 0.06866173 0.3424885
vt -0.1499043 -0.4310262
vt -1.294392 -0.4310262
vt -0.01152098 0.2646717
vt -1.235969 0.2647896
vt -0.665709 -0.4340108
vt 0.07816458 0.2079108
vt -0.6873155 0.2079108
vt -1.235686 0.6873155
vt -0.07123804 0.6873155
vt -1.235686 -0.07816458
vt -0.01124477 -0.07388496
vt 0.07123804 0.6702881
vt 1.293081 0.665709
vt 0.1486015 -0.3486748
vt 1.293081 -0.3529544
vt -0.665709 -0.4340108
vt 0.07816458 0.2079108
vt 0.3529544 -0.4340108
vt -0.01124477 -0.07388496
vt -0.07123804 0.6873155
vt 0.3036108 -0.0702877
vt 0.3036108 0.6873155
vt 0.07123804 0.6702881
vt 0.1486015 -0.3486748
vt -0.3036108 0.6702881
vt -0.166254 -0.3450775
vt -0.1525752 -0.4302944
vt -0.01208813 0.2649817
vt 0.1623009 -0.4302944
vt 0.302788 0.2649817
vt 0.07123804 0.3378603
vt 0.07123804 -0.301717
vt -0.3036108 0.3378603
vt -0.3036108 -0.301717
vt 0.3036108 -0.0702877
vt 0.3036108 0.6873155
vt 1.291364 0.6873155
vt -0.3036108 0.6702881
vt -0.166254 -0.3450775
vt -1.291364 0.6702881
vt 0.1878973 -0.5272454
vt 0.3537671 0.1494354
vt 1.292252 -0.5272454
vt 1.188573 0.1495419
vt -0.3036108 0.3378603
vt -0.3036108 -0.301717
vt -1.291364 0.3378603
vt -1.291364 -0.301717
vt 0.3552293 -0.2768952
vt 0.09003002 0.3809914
vt 0.6982046 -0.2768952
vt 0.4876845 0.386817
vt -1.291364 0.6702881
vt -0.166254 -0.3450775
vt -1.293081 -0.6859834
vt -0.1887267 -0.6873157
vt 0.3036108 -0.0702877
vt 1.291364 0.6873155
vt 0.3543289 -0.4654682
vt 1.189134 -0.4641359
vt 0.798825 0.316788
vt 0.7818644 -0.3225643
vt -0.3571556 0.316788
vt -0.5689414 -0.3228509

g Ext 10 Low box_0
usemtl Blanc_fosc
f 3/3/3 4/4/4 2/2/2 1/1/1
f 7/7/7 8/8/8 6/6/6 5/5/5
f 14/14/14 15/15/15 13/13/13 12/12/12
f 18/18/18 19/19/19 17/17/17 16/16/16
f 25/25/25 26/26/26 24/24/24 23/23/23
f 29/29/29 30/30/30 28/28/28 27/27/27
f 33/33/33 34/34/34 32/32/32 31/31/31
f 37/37/37 38/38/38 36/36/36 35/35/35
f 47/47/47 48/48/48 46/46/46 45/45/45
f 51/51/51 52/52/52 50/50/50 49/49/49
f 55/55/55 56/56/56 54/54/54 53/53/53
f 59/59/59 60/60/60 58/58/58 57/57/57
f 63/63/63 64/64/64 62/62/62 61/61/61
f 67/67/67 68/68/68 66/66/66 65/65/65

g Ext 10 Low box_1
usemtl Blanc_fosc
f 10/10/10 11/11/11 9/9/9
f 22/22/22 21/21/21 20/20/20
f 41/41/41 40/40/40 39/39/39
f 44/44/44 43/43/43 42/42/42

