# Exported from ProBuilder
# http://www.procore3d.com/probuilder
# 4/27/2018 11:19:09 AM

mtllib ./Ext_15_Left_box_1.mtl
o Ext 15 Left box 1

g Ext 15 Left box 1
v 9.01 0.06999999 0.1282497
v 8.482221 0.06999999 -0.3335479
v 9.289508 1.07 0.1282497
v 8.664508 1.07 0.1282474
v 8.482221 0.06999999 -0.3335479
v 8.385001 0.06999999 -2.531662
v 8.664508 1.07 0.1282474
v 8.628052 1.07 -2.132158
v 8.385001 0.06999999 -2.531662
v 9.010001 0.06999999 -2.531659
v 8.628052 1.07 -2.132158
v 9.411034 1.07 -2.132154
v 9.010001 0.06999999 -2.531659
v 9.01 0.06999999 0.1282497
v 9.411034 1.07 -2.132154
v 9.289508 1.07 0.1282497
v 9.289508 1.07 0.1282497
v 8.664508 1.07 0.1282474
v 9.411034 1.07 -2.132154
v 8.628052 1.07 -2.132158
v 9.010001 0.06999999 -2.531659
v 8.385001 0.06999999 -2.531662
v 9.01 0.06999999 0.1282497
v 8.482221 0.06999999 -0.3335479

vn -0.08824763 -0.07805024 1.727075
vn -0.1839352 -0.1626822 1.648091
vn -8.19564E-07 5.960465E-07 1.75
vn -0.08824763 -0.07805024 1.727075
vn -0.5934381 0.3034708 0.1394929
vn -0.5839911 0.3369481 0.2024999
vn -0.6013246 0.2691454 0.07603393
vn -0.5934381 0.3034708 0.1394929
vn 8.634951E-07 0.2225616 -1.706107
vn 7.990082E-07 0.2225618 -1.706107
vn 9.149706E-07 0.2225615 -1.706107
vn 8.634951E-07 0.2225616 -1.706107
vn 0.5460972 -0.4825975 0.1057465
vn 0.5705448 -0.4082472 2.094837E-06
vn 0.513806 -0.5557464 0.2165695
vn 0.5460972 -0.4825975 0.1057465
vn 0 0.9999999 0
vn 0 1 0
vn 0 1 0
vn 0 0.9999999 0
vn 0 -1 0
vn 0 -1 0
vn 0 -1 0
vn 0 -1 0

vt 0.3976949 -0.5844533
vt -0.4870229 -0.5844533
vt 0.8245506 0.4244039
vt -0.1299315 0.3849672
vt 0.4105662 -0.6637868
vt -0.8550941 -0.6637868
vt 0.7082941 0.3687138
vt -0.580743 0.3938203
vt 0.8208258 -0.6566004
vt -0.1791742 -0.6566004
vt 0.431945 0.3691263
vt -0.8208259 0.3691263
vt 0.7599741 -0.3240587
vt -0.7599742 -0.3240587
vt 0.5316865 0.8640983
vt -0.7599736 0.7590932
vt -0.6263863 0.7599736
vt 0.3736137 0.7599736
vt -0.8208259 -0.5316865
vt 0.431945 -0.5316868
vt 0.1791742 -0.7599741
vt -0.8208258 -0.7599741
vt 0.1791742 0.7599742
vt -0.665273 0.4960909

g Ext 15 Left box 1
usemtl Blanc_fosc
f 3/3/3 4/4/4 2/2/2 1/1/1
f 7/7/7 8/8/8 6/6/6 5/5/5
f 11/11/11 12/12/12 10/10/10 9/9/9
f 15/15/15 16/16/16 14/14/14 13/13/13
f 19/19/19 20/20/20 18/18/18 17/17/17
f 23/23/23 24/24/24 22/22/22 21/21/21

