# Exported from ProBuilder
# http://www.procore3d.com/probuilder
# 4/27/2018 11:10:54 AM

mtllib ./Ext_3_Up_Box.mtl
o Ext 3 Up Box

g Ext 3 Up Box
v 3.184942 0.05000001 5.53
v 1.189 0.05000001 5.017717
v 3.184942 0.650379 5.53
v 1.415587 0.650379 5.53
v 1.189 0.05000001 5.017717
v 1.189 0.05000001 4.223594
v 1.415587 0.650379 5.53
v 1.415587 0.650379 4.841336
v 1.189 0.05000001 4.223594
v 3.100335 0.05000001 4.223594
v 1.415587 0.650379 4.841336
v 3.189 0.650379 4.841336
v 3.100335 0.05000001 4.223594
v 3.184942 0.05000001 5.53
v 3.189 0.650379 4.841336
v 3.184942 0.650379 5.53
v 3.184942 0.650379 5.53
v 1.415587 0.650379 5.53
v 3.189 0.650379 4.841336
v 1.415587 0.650379 4.841336
v 3.100335 0.05000001 4.223594
v 1.189 0.05000001 4.223594
v 3.184942 0.05000001 5.53
v 1.189 0.05000001 5.017717

vn -0.7056372 -0.5198894 0.4667808
vn -0.9389042 -0.6917526 0.3292316
vn 0 0 0.6
vn -0.7056372 -0.5198894 0.4667808
vn -1.965315 0.1854308 0
vn -1.965315 0.1854307 0
vn -1.965315 0.1854308 0
vn -1.965315 0.1854308 0
vn 0 0.8638532 -0.3022462
vn 0 0.8638532 -0.3022462
vn 0 0.8638532 -0.3022462
vn 0 0.8638532 -0.3022462
vn 1.99915 -0.02652358 -0.00726421
vn 1.999622 0 -0.01165512
vn 1.994114 -0.07664563 0.00105751
vn 1.99915 -0.02652358 -0.00726421
vn 0 1 0
vn 0 1 0
vn 0 1 0
vn 0 1 0
vn 0 -1 0
vn 0 -1 0
vn 0 -1 0
vn 0 -1 0

vt 1.086122 -0.3001895
vt -0.2272443 -0.3001895
vt 1.086122 0.3001895
vt 0.4138929 0.3001895
vt 0.2348667 -0.3876988
vt -1.088672 -0.3876988
vt 1.088672 0.2232762
vt -0.05910182 0.2232762
vt 0.5 -1.091671
vt -0.4556677 -1.091671
vt 0.3867065 0.1001633
vt -0.5 0.1001633
vt 1.079615 -0.2806446
vt -1.09814 -0.2806446
vt 0.04937807 0.3202269
vt -1.09814 0.3192422
vt -0.4979711 1.088672
vt 0.3867065 1.088672
vt -0.5 -0.05910182
vt 0.3867065 -0.05910182
vt 0.4556677 -1.088672
vt -0.5 -1.088672
vt 0.4979711 1.088672
vt -0.5 0.2348667

g Ext 3 Up Box
usemtl Blanc_fosc
f 3/3/3 4/4/4 2/2/2 1/1/1
f 7/7/7 8/8/8 6/6/6 5/5/5
f 11/11/11 12/12/12 10/10/10 9/9/9
f 15/15/15 16/16/16 14/14/14 13/13/13
f 19/19/19 20/20/20 18/18/18 17/17/17
f 23/23/23 24/24/24 22/22/22 21/21/21

