# Exported from ProBuilder
# http://www.procore3d.com/probuilder
# 4/27/2018 11:17:44 AM

mtllib ./Ext_8.1_Left_box.mtl
o Ext 8.1 Left box

g Ext 8.1 Left box
v 8.375136 0.04000002 -0.2333413
v 9.368026 0.04000002 -0.2313183
v 8.748212 1.400592 0.1217533
v 9.841005 1.400592 0.1374589
v 9.368026 0.04000002 -0.2313183
v 9.400135 0.04000002 1.854028
v 9.841005 1.400592 0.1374589
v 9.93294 1.400592 2.197906
v 9.400135 0.04000002 1.854028
v 8.376488 0.04000002 1.573924
v 9.93294 1.400592 2.197906
v 8.83245 1.400592 2.283319
v 8.376488 0.04000002 1.573924
v 8.375136 0.04000002 -0.2333413
v 8.83245 1.400592 2.283319
v 8.748212 1.400592 0.1217533
v 8.748212 1.400592 0.1217533
v 9.841005 1.400592 0.1374589
v 8.83245 1.400592 2.283319
v 9.93294 1.400592 2.197906
v 8.376488 0.04000002 1.573924
v 9.400135 0.04000002 1.854028
v 8.375136 0.04000002 -0.2333413
v 9.368026 0.04000002 -0.2313183

vn 0.008219539 0.2546772 -0.9669911
vn 0.001966849 0.2609654 -0.9653462
vn 0.01391812 0.2489277 -0.9684221
vn 0.008219539 0.2546772 -0.9669911
vn 0.9399818 -0.3400635 -0.02812458
vn 0.9322808 -0.3614505 -0.01435501
vn 0.9472082 -0.3178211 -0.04226295
vn 0.9399818 -0.3400635 -0.02812458
vn -0.08608815 -0.3322684 0.9392478
vn -0.243819 -0.3828705 0.8910456
vn 0.07447009 -0.2716695 0.9595049
vn -0.08608815 -0.3322684 0.9392478
vn -0.9586118 0.2839647 0.02067283
vn -0.9644498 0.2642649 0.0007209934
vn -0.9531943 0.3000675 0.03714689
vn -0.9586118 0.2839647 0.02067283
vn 0 1 0
vn 0 1 0
vn 0 1 0
vn 0 1 0
vn 0 -1 0
vn 0 -1 0
vn 0 -1 0
vn 0 -1 0

vt 0.750987 -0.9651912
vt -0.2419047 -0.9651912
vt 0.3771887 0.4407827
vt -0.7156348 0.4441797
vt 1.213175 -0.5579615
vt -0.8724184 -0.5579615
vt 0.8371593 0.8806244
vt -1.224459 0.9001772
vt 0.4958515 -0.5673731
vt -0.5654277 -0.5673731
vt 1.100523 0.8065684
vt 0.06159798 0.8584155
vt 0.5876024 -0.8824158
vt -1.219664 -0.8824158
vt 1.297338 0.5523766
vt -0.8642904 0.5261506
vt -0.2746987 0.9011108
vt 0.8092138 0.7611868
vt -0.4369152 -1.256005
vt 0.6661465 -1.296343
vt 0.8092144 -0.4993436
vt -0.1759224 -0.8940825
vt 0.6049553 1.296343
vt -0.3812581 1.181378

g Ext 8.1 Left box
usemtl Blanc_fosc
f 3/3/3 4/4/4 2/2/2 1/1/1
f 7/7/7 8/8/8 6/6/6 5/5/5
f 11/11/11 12/12/12 10/10/10 9/9/9
f 15/15/15 16/16/16 14/14/14 13/13/13
f 19/19/19 20/20/20 18/18/18 17/17/17
f 23/23/23 24/24/24 22/22/22 21/21/21

