# Exported from ProBuilder
# http://www.procore3d.com/probuilder
# 4/27/2018 1:05:55 PM

mtllib ./Ext_23_Tower_Right.mtl
o Ext 23 Tower Right

g Ext 23 Tower Right
v -8.529735 0 -5.043466
v -8.681736 1.575796 -4.470822
v -8.270915 0 -4.07754
v -8.422916 1.575796 -3.504896
v -8.270915 0 -4.07754
v -8.422916 1.575796 -3.504896
v -7.304989 0 -3.818722
v -7.45699 1.575796 -3.246078
v -7.304989 0 -3.818722
v -7.45699 1.575796 -3.246078
v -6.597883 0 -4.525829
v -6.749884 1.575796 -3.953185
v -6.597883 0 -4.525829
v -6.749884 1.575796 -3.953185
v -6.856702 0 -5.491755
v -7.008704 1.575796 -4.919111
v -6.856702 0 -5.491755
v -7.008704 1.575796 -4.919111
v -7.822628 0 -5.750573
v -7.974629 1.575796 -5.177929
v -7.822628 0 -5.750573
v -7.974629 1.575796 -5.177929
v -8.529735 0 -5.043466
v -8.681736 1.575796 -4.470822
v -8.529735 0 -5.043466
v -7.563808 0 -4.784647
v -8.270915 0 -4.07754
v -8.681736 1.575796 -4.470822
v -7.71581 1.575796 -4.212004
v -8.422916 1.575796 -3.504896
v -8.270915 0 -4.07754
v -7.563808 0 -4.784647
v -7.304989 0 -3.818722
v -8.422916 1.575796 -3.504896
v -7.71581 1.575796 -4.212004
v -7.45699 1.575796 -3.246078
v -7.304989 0 -3.818722
v -7.563808 0 -4.784647
v -6.597883 0 -4.525829
v -7.45699 1.575796 -3.246078
v -7.71581 1.575796 -4.212004
v -6.749884 1.575796 -3.953185
v -6.597883 0 -4.525829
v -7.563808 0 -4.784647
v -6.856702 0 -5.491755
v -6.749884 1.575796 -3.953185
v -7.71581 1.575796 -4.212004
v -7.008704 1.575796 -4.919111
v -6.856702 0 -5.491755
v -7.563808 0 -4.784647
v -7.822628 0 -5.750573
v -7.008704 1.575796 -4.919111
v -7.71581 1.575796 -4.212004
v -7.974629 1.575796 -5.177929
v -7.822628 0 -5.750573
v -7.563808 0 -4.784647
v -8.529735 0 -5.043466
v -7.974629 1.575796 -5.177929
v -7.71581 1.575796 -4.212004
v -8.681736 1.575796 -4.470822

vn -0.8221329 0.0007244647 -0.220219
vn -0.8221329 0.0007245615 -0.2202191
vn -0.5958446 -0.2679803 0.5792656
vn -0.5958445 -0.2679802 0.5792655
vn -0.5958446 -0.2679803 0.5792656
vn -0.5958445 -0.2679802 0.5792655
vn 0.2262884 -0.2687047 0.7994844
vn 0.2262884 -0.2687047 0.7994844
vn 0.2262884 -0.2687047 0.7994844
vn 0.2262884 -0.2687047 0.7994844
vn 0.8221329 -0.0007244274 0.2202188
vn 0.8221329 -0.0007244572 0.2202188
vn 0.8221329 -0.0007244274 0.2202188
vn 0.8221329 -0.0007244572 0.2202188
vn 0.5958446 0.2679802 -0.5792656
vn 0.5958446 0.2679802 -0.5792656
vn 0.5958446 0.2679802 -0.5792656
vn 0.5958446 0.2679802 -0.5792656
vn -0.2262882 0.2687047 -0.7994846
vn -0.2262882 0.2687047 -0.7994846
vn -0.2262882 0.2687047 -0.7994846
vn -0.2262882 0.2687047 -0.7994846
vn -0.8221329 0.0007244647 -0.220219
vn -0.8221329 0.0007245615 -0.2202191
vn 0 -1 0
vn 0 -1 0
vn 0 -1 0
vn 0 1 0
vn 0 1 0
vn 0 1 0
vn 0 -1 0
vn 0 -1 0
vn 0 -1 0
vn 0 1 0
vn 0 1 0
vn 0 1 0
vn 0 -0.9999999 0
vn 0 -0.9999999 0
vn 0 -0.9999999 0
vn 0 1 0
vn 0 1 0
vn 0 1 0
vn 0 -1 0
vn 0 -1 0
vn 0 -1 0
vn 0 1 0
vn 0 1 0
vn 0 1 0
vn 0 -1 0
vn 0 -1 0
vn 0 -1 0
vn 0 1 0
vn 0 1 0
vn 0 1 0
vn 0 -1 0
vn 0 -1 0
vn 0 -1 0
vn 0 0.9999999 0
vn 0 0.9999999 0
vn 0 0.9999999 0

vt -0.7568954 -0.6422138
vt -0.2431051 0.9609637
vt 0.2431045 -0.6422138
vt 0.7568952 0.9609638
vt -0.5006946 -0.5369675
vt -0.499306 1.146528
vt 0.4993055 -0.5369675
vt 0.5006943 1.146528
vt -0.2437991 -0.6411812
vt -0.756201 0.9624408
vt 0.7562009 -0.6411812
vt 0.2437992 0.9624408
vt -0.2431045 -0.9609638
vt -0.7568948 0.6422138
vt 0.7568954 -0.9609638
vt 0.2431049 0.6422138
vt -0.4993054 -1.146528
vt -0.5006942 0.5369675
vt 0.5006945 -1.146528
vt 0.4993058 0.5369675
vt -0.7562009 -0.9624409
vt -0.2437991 0.6411811
vt 0.2437991 -0.9624409
vt 0.7562006 0.6411811
vt -1.000695 -0.2962363
vt -0.0006946027 -0.2962363
vt -0.5006946 0.5697891
vt 0.9993058 0.2962358
vt -0.0006941557 0.2962358
vt 0.499306 1.162262
vt -0.5006946 0.5697891
vt -0.0006946027 -0.2962363
vt 0.4993056 0.569789
vt 0.499306 1.162262
vt -0.0006941557 0.2962358
vt -0.5006943 1.162261
vt 0.4993056 0.569789
vt -0.0006946027 -0.2962363
vt 0.9993054 -0.2962365
vt -0.5006943 1.162261
vt -0.0006941557 0.2962358
vt -1.000694 0.2962358
vt 0.9993054 -0.2962365
vt -0.0006946027 -0.2962363
vt 0.4993054 -1.162262
vt -1.000694 0.2962358
vt -0.0006941557 0.2962358
vt -0.5006942 -0.5697893
vt 0.4993054 -1.162262
vt -0.0006946027 -0.2962363
vt -0.5006945 -1.162262
vt -0.5006942 -0.5697893
vt -0.0006941557 0.2962358
vt 0.4993058 -0.5697893
vt -0.5006945 -1.162262
vt -0.0006946027 -0.2962363
vt -1.000695 -0.2962363
vt 0.4993058 -0.5697893
vt -0.0006941557 0.2962358
vt 0.9993058 0.2962358

g Ext 23 Tower Right_0
usemtl Blanc_fosc
f 3/3/3 4/4/4 2/2/2 1/1/1
f 7/7/7 8/8/8 6/6/6 5/5/5
f 11/11/11 12/12/12 10/10/10 9/9/9
f 15/15/15 16/16/16 14/14/14 13/13/13
f 19/19/19 20/20/20 18/18/18 17/17/17
f 23/23/23 24/24/24 22/22/22 21/21/21

g Ext 23 Tower Right_1
usemtl Blanc_fosc
f 25/25/25 26/26/26 27/27/27
f 31/31/31 32/32/32 33/33/33
f 37/37/37 38/38/38 39/39/39
f 43/43/43 44/44/44 45/45/45
f 49/49/49 50/50/50 51/51/51
f 55/55/55 56/56/56 57/57/57
f 30/30/30 29/29/29 28/28/28
f 36/36/36 35/35/35 34/34/34
f 42/42/42 41/41/41 40/40/40
f 48/48/48 47/47/47 46/46/46
f 54/54/54 53/53/53 52/52/52
f 60/60/60 59/59/59 58/58/58

