# Exported from ProBuilder
# http://www.procore3d.com/probuilder
# 4/27/2018 11:27:41 AM

mtllib ./Ext_13_Low_box.mtl
o Ext 13 Low box

g Ext 13 Low box
v 4.96 0 -4.563881
v 3.920973 0 -4.553264
v 4.998523 1 -4.21
v 4.047133 1 -4.21
v 3.920973 0 -4.553264
v 3.904585 0 -5.03306
v 4.047133 1 -4.21
v 4.047133 1 -4.788551
v 3.904585 0 -5.03306
v 4.981127 0 -5.020907
v 4.047133 1 -4.788551
v 4.992724 1 -4.788551
v 4.981127 0 -5.020907
v 4.96 0 -4.563881
v 4.992724 1 -4.788551
v 4.998523 1 -4.21
v 4.998523 1 -4.21
v 4.047133 1 -4.21
v 4.992724 1 -4.788551
v 4.047133 1 -4.788551
v 4.981127 0 -5.020907
v 3.904585 0 -5.03306
v 4.96 0 -4.563881
v 3.920973 0 -4.553264

vn 0.005035976 -0.3295148 0.9441369
vn 0.009660186 -0.3257436 0.9454088
vn 0 -0.3336077 0.9427119
vn 0.005035976 -0.3295148 0.9441369
vn -0.9915636 0.1287084 0.01535384
vn -0.9905481 0.1329282 0.03383325
vn -0.9921355 0.125168 0
vn -0.9915636 0.1287084 0.01535384
vn 0.005846464 0.2315001 -0.9728174
vn 0.01099535 0.2261917 -0.9740208
vn 0 0.2375116 -0.9713848
vn 0.005846464 0.2315001 -0.9728174
vn 0.9994588 -0.02938247 0.01479379
vn 0.9974353 -0.05474104 0.04610906
vn 0.9999069 -0.009266918 -0.01002206
vn 0.9994588 -0.02938247 0.01479379
vn 0 1 0
vn 0 1 0
vn 0 1 0
vn 0 1 0
vn 0 -1 0
vn 0 -1 0
vn 0 -1 0
vn 0 -1 0

vt 0.5078307 -0.4503165
vt -0.5312508 -0.4503165
vt 0.5427356 0.6105782
vt -0.4086046 0.6073322
vt 0.05011364 -0.5572803
vt -0.4299616 -0.5572803
vt 0.3974843 0.4492386
vt -0.1807298 0.4514827
vt 0.5515794 -0.5815405
vt -0.5250316 -0.5815405
vt 0.4062804 0.4475331
vt -0.5392503 0.4450139
vt 0.4234061 -0.4884856
vt -0.03410798 -0.4884856
vt 0.1918339 0.5117634
vt -0.3858325 0.5124886
vt -0.5469689 0.4115295
vt 0.4044209 0.4115295
vt -0.5411701 -0.1670218
vt 0.4044209 -0.1670218
vt 0.5295734 -0.3993773
vt -0.5469689 -0.41153
vt 0.5084462 0.05764866
vt -0.530581 0.06826544

g Ext 13 Low box
usemtl Blanc_fosc
f 3/3/3 4/4/4 2/2/2 1/1/1
f 7/7/7 8/8/8 6/6/6 5/5/5
f 11/11/11 12/12/12 10/10/10 9/9/9
f 15/15/15 16/16/16 14/14/14 13/13/13
f 19/19/19 20/20/20 18/18/18 17/17/17
f 23/23/23 24/24/24 22/22/22 21/21/21

