# Exported from ProBuilder
# http://www.procore3d.com/probuilder
# 4/19/2018 3:46:21 PM

mtllib ./SpikesCross.mtl
o SpikesCross

g SpikesCross
v -25 0 -5.7
v -26 0 -5
v -25 0.1 -5.7
v -26 0.1 -5
v -26 0 -5
v -26 0 -5.3
v -26 0.1 -5
v -26 0.1 -5.3
v -26 0 -5.3
v -25 0 -6
v -26 0.1 -5.3
v -25 0.1 -6
v -25 0 -6
v -25 0 -5.7
v -25 0.1 -6
v -25 0.1 -5.7
v -25 0.1 -5.7
v -26 0.1 -5
v -25 0.1 -6
v -26 0.1 -5.3
v -25 0 -6
v -26 0 -5.3
v -25 0 -5.7
v -26 0 -5
v -25 0 -5
v -26 0 -5.7
v -25 0.1 -5
v -26 0.1 -5.7
v -26 0 -5.7
v -26 0 -6
v -26 0.1 -5.7
v -26 0.1 -6
v -26 0 -6
v -25 0 -5.3
v -26 0.1 -6
v -25 0.1 -5.3
v -25 0 -5.3
v -25 0 -5
v -25 0.1 -5.3
v -25 0.1 -5
v -25 0.1 -5
v -26 0.1 -5.7
v -25 0.1 -5.3
v -26 0.1 -6
v -25 0 -5.3
v -26 0 -6
v -25 0 -5
v -26 0 -5.7

vn 0.5734622 0 0.819232
vn 0.5734622 0 0.819232
vn 0.5734622 0 0.819232
vn 0.5734622 0 0.819232
vn -1 0 0
vn -1 0 0
vn -1 0 0
vn -1 0 0
vn -0.5734622 0 -0.819232
vn -0.5734622 0 -0.819232
vn -0.5734622 0 -0.819232
vn -0.5734622 0 -0.819232
vn 1 0 0
vn 1 0 0
vn 1 0 0
vn 1 0 0
vn 0 0.9999999 0
vn 0 0.9999999 0
vn 0 0.9999999 0
vn 0 0.9999999 0
vn 0 -0.9999999 0
vn 0 -0.9999999 0
vn 0 -0.9999999 0
vn 0 -0.9999999 0
vn -0.5734622 0 0.819232
vn -0.5734622 0 0.819232
vn -0.5734622 0 0.819232
vn -0.5734622 0 0.819232
vn -1 0 0
vn -1 0 0
vn -1 0 0
vn -1 0 0
vn 0.5734622 0 -0.819232
vn 0.5734622 0 -0.819232
vn 0.5734622 0 -0.819232
vn 0.5734622 0 -0.819232
vn 1 0 0
vn 1 0 0
vn 1 0 0
vn 1 0 0
vn 0 0.9999999 0
vn 0 0.9999999 0
vn 0 0.9999999 0
vn 0 0.9999999 0
vn 0 -0.9999999 0
vn 0 -0.9999999 0
vn 0 -0.9999999 0
vn 0 -0.9999999 0

vt 0.4014235 0
vt -0.819232 0
vt 0.4014235 0.1
vt -0.819232 0.1
vt 0 0
vt -0.3000002 0
vt 0 0.1
vt -0.3000002 0.1
vt 0.6471932 0
vt -0.5734623 0
vt 0.6471932 0.1
vt -0.5734623 0.1
vt 1 0
vt 0.6999998 0
vt 1 0.1
vt 0.6999998 0.1
vt 0 -0.6999998
vt 1 0
vt 0 -1
vt 1 -0.3000002
vt 0 -1
vt -1 -0.3000002
vt 0 -0.6999998
vt -1 0
vt 0 0
vt -1.220655 0
vt 0 0.1
vt -1.220655 0.1
vt -0.6999998 0
vt -1 0
vt -0.6999998 0.1
vt -1 0.1
vt 1.392694 0
vt 0.1720388 0
vt 1.392694 0.1
vt 0.1720388 0.1
vt 0.3000002 0
vt 0 0
vt 0.3000002 0.1
vt 0 0.1
vt 0 0
vt 1 -0.6999998
vt 0 -0.3000002
vt 1 -1
vt 0 -0.3000002
vt -1 -1
vt 0 0
vt -1 -0.6999998

g SpikesCross
usemtl Default_Prototype
f 3/3/3 4/4/4 2/2/2 1/1/1
f 7/7/7 8/8/8 6/6/6 5/5/5
f 11/11/11 12/12/12 10/10/10 9/9/9
f 15/15/15 16/16/16 14/14/14 13/13/13
f 19/19/19 20/20/20 18/18/18 17/17/17
f 23/23/23 24/24/24 22/22/22 21/21/21
f 27/27/27 28/28/28 26/26/26 25/25/25
f 31/31/31 32/32/32 30/30/30 29/29/29
f 35/35/35 36/36/36 34/34/34 33/33/33
f 39/39/39 40/40/40 38/38/38 37/37/37
f 43/43/43 44/44/44 42/42/42 41/41/41
f 47/47/47 48/48/48 46/46/46 45/45/45

