# Exported from ProBuilder
# http://www.procore3d.com/probuilder
# 5/11/2018 7:17:28 PM

mtllib ./Note_Sparkle.mtl
o Note Sparkle

g pb-MergedObject-130182
v -0.48 0.05531554 2.395832
v -0.48 0.2854758 2.462013
v -0.6154447 0.183 2.548
v -0.48 0.05531554 2.395832
v -0.3445553 0.183 2.548
v -0.48 0.2854758 2.462013
v -0.48 0.05531554 2.395832
v -0.48 0.08052424 2.633987
v -0.3445553 0.183 2.548
v -0.48 0.05531554 2.395832
v -0.6154447 0.183 2.548
v -0.48 0.08052424 2.633987
v -0.6154447 0.183 2.548
v -0.48 0.2854758 2.462013
v -0.48 0.183 2.548
v -0.48 0.2854758 2.462013
v -0.3445553 0.183 2.548
v -0.48 0.183 2.548
v -0.3445553 0.183 2.548
v -0.48 0.08052424 2.633987
v -0.48 0.183 2.548
v -0.48 0.08052424 2.633987
v -0.6154447 0.183 2.548
v -0.48 0.183 2.548
v -0.48 0.3106844 2.700169
v -0.3445553 0.183 2.548
v -0.48 0.08052424 2.633987
v -0.48 0.3106844 2.700169
v -0.48 0.2854758 2.462013
v -0.3445553 0.183 2.548
v -0.48 0.3106844 2.700169
v -0.6154447 0.183 2.548
v -0.48 0.2854758 2.462013
v -0.48 0.3106844 2.700169
v -0.48 0.08052424 2.633987
v -0.6154447 0.183 2.548
v -0.48 0.08052424 2.633987
v -0.3445553 0.183 2.548
v -0.48 0.183 2.548
v -0.3445553 0.183 2.548
v -0.48 0.2854758 2.462013
v -0.48 0.183 2.548
v -0.48 0.2854758 2.462013
v -0.6154447 0.183 2.548
v -0.48 0.183 2.548
v -0.6154447 0.183 2.548
v -0.48 0.08052424 2.633987
v -0.48 0.183 2.548
v -0.8924546 0.307314 2.746671
v -0.7460237 0.3305906 2.784899
v -0.8924546 0.3348573 2.723559
v -0.7460237 0.3581339 2.761787
v -0.776015 0.3531892 2.792899
v -0.8924546 0.307314 2.746671
v -0.776015 0.3807325 2.769788
v -0.8924546 0.3348573 2.723559
v -0.7460237 0.3305906 2.784899
v -0.70122 0.3883098 2.834754
v -0.7460237 0.3581339 2.761787
v -0.70122 0.4068559 2.80092
v -0.7090554 0.4084319 2.858735
v -0.776015 0.3531892 2.792899
v -0.7090554 0.4359751 2.835623
v -0.776015 0.3807325 2.769788
v -0.48 0.08052424 2.633987
v -0.6154447 0.183 2.548
v -0.48 0.2854758 2.462013
v -0.6114988 0.4384479 2.894506
v -0.7090554 0.4084319 2.858735
v -0.7090554 0.4359751 2.835623
v -0.6114988 0.4659912 2.871395
v -0.5871325 0.2680278 2.648306
v -0.6163501 0.3532379 2.771406
v -0.6163501 0.3737457 2.754198
v -0.5871325 0.3145093 2.609303
v -0.6163501 0.3532379 2.771406
v -0.6114988 0.4384479 2.894506
v -0.6114988 0.4659912 2.871395
v -0.6163501 0.3737457 2.754198
v -0.70122 0.3883098 2.834754
v -0.6427007 0.3908047 2.837728
v -0.6427007 0.4130547 2.819057
v -0.6427007 0.418348 2.814616
v -0.70122 0.4068559 2.80092
v -0.6427007 0.3908047 2.837728
v -0.6467535 0.3305909 2.765967
v -0.6467535 0.3528409 2.747298
v -0.6427007 0.4130547 2.819057
v -0.6467535 0.3305909 2.765967
v -0.6393226 0.2703771 2.694207
v -0.6393226 0.2926271 2.675537
v -0.6467535 0.3528409 2.747298
v -0.6393226 0.2926271 2.675537
v -0.6393226 0.3309295 2.643398
v -0.6467535 0.3581342 2.742856
v -0.6467535 0.3528409 2.747298
v -0.6467535 0.3581342 2.742856
v -0.6427007 0.418348 2.814616
v -0.6427007 0.4130547 2.819057
v -0.6467535 0.3528409 2.747298
v -0.6393226 0.2703771 2.694207
v -0.6154447 0.183 2.548
v -0.6393226 0.3309295 2.643398
v -0.6393226 0.2926271 2.675537
v -0.776015 0.3807325 2.769788
v -0.8924546 0.3348573 2.723559
v -0.7460237 0.3581339 2.761787
v -0.776015 0.3807325 2.769788
v -0.7460237 0.3581339 2.761787
v -0.70122 0.4068559 2.80092
v -0.7090554 0.4359751 2.835623
v -0.776015 0.3807325 2.769788
v -0.70122 0.4068559 2.80092
v -0.7090554 0.4359751 2.835623
v -0.70122 0.4068559 2.80092
v -0.6427007 0.418348 2.814616
v -0.7090554 0.4359751 2.835623
v -0.6427007 0.418348 2.814616
v -0.6114988 0.4659912 2.871395
v -0.6427007 0.418348 2.814616
v -0.6163501 0.3737457 2.754198
v -0.6114988 0.4659912 2.871395
v -0.6163501 0.3737457 2.754198
v -0.6427007 0.418348 2.814616
v -0.6467535 0.3581342 2.742856
v -0.6467535 0.3581342 2.742856
v -0.6393226 0.3309295 2.643398
v -0.6163501 0.3737457 2.754198
v -0.6163501 0.3737457 2.754198
v -0.6393226 0.3309295 2.643398
v -0.5871325 0.3145093 2.609303
v -0.6393226 0.3309295 2.643398
v -0.6154447 0.183 2.548
v -0.5871325 0.3145093 2.609303
v -0.5871325 0.3145093 2.609303
v -0.6154447 0.183 2.548
v -0.48 0.2854758 2.462013
v -0.48 0.08052424 2.633987
v -0.6154447 0.183 2.548
v -0.5871325 0.2680278 2.648306
v -0.5871325 0.2680278 2.648306
v -0.6154447 0.183 2.548
v -0.6393226 0.2703771 2.694207
v -0.5871325 0.2680278 2.648306
v -0.6393226 0.2703771 2.694207
v -0.6163501 0.3532379 2.771406
v -0.6163501 0.3532379 2.771406
v -0.6393226 0.2703771 2.694207
v -0.6467535 0.3305909 2.765967
v -0.6467535 0.3305909 2.765967
v -0.6427007 0.3908047 2.837728
v -0.6163501 0.3532379 2.771406
v -0.6114988 0.4384479 2.894506
v -0.6163501 0.3532379 2.771406
v -0.6427007 0.3908047 2.837728
v -0.6427007 0.3908047 2.837728
v -0.7090554 0.4084319 2.858735
v -0.6114988 0.4384479 2.894506
v -0.6427007 0.3908047 2.837728
v -0.70122 0.3883098 2.834754
v -0.7090554 0.4084319 2.858735
v -0.70122 0.3883098 2.834754
v -0.776015 0.3531892 2.792899
v -0.7090554 0.4084319 2.858735
v -0.70122 0.3883098 2.834754
v -0.7460237 0.3305906 2.784899
v -0.776015 0.3531892 2.792899
v -0.7460237 0.3305906 2.784899
v -0.8924546 0.307314 2.746671
v -0.776015 0.3531892 2.792899

vn -0.6337138 0.2137724 -0.7434434
vn -0.6337138 0.2137724 -0.7434434
vn -0.6337138 0.2137724 -0.7434434
vn 0.6337138 0.2137724 -0.7434435
vn 0.6337138 0.2137724 -0.7434435
vn 0.6337138 0.2137724 -0.7434435
vn 0.6337139 -0.7692701 0.08142697
vn 0.6337139 -0.7692701 0.08142697
vn 0.6337139 -0.7692701 0.08142697
vn -0.6337139 -0.7692701 0.08142696
vn -0.6337139 -0.7692701 0.08142696
vn -0.6337139 -0.7692701 0.08142696
vn -2.423678E-08 -0.2142625 -0.2553482
vn 1.776357E-15 0 0
vn -1.475172E-09 9.071791E-16 -7.612134E-16
vn 1.776357E-15 0 0
vn 2.128644E-08 0.2142625 0.2553482
vn -1.475172E-09 9.071791E-16 -7.612134E-16
vn 2.128644E-08 0.2142625 0.2553482
vn -4.42552E-09 0 0
vn -1.475172E-09 9.071791E-16 -7.612134E-16
vn 7.271035E-08 0.6427875 0.7660446
vn 7.271035E-08 0.6427875 0.7660446
vn 7.271035E-08 0.6427875 0.7660446
vn 0.6337138 -0.2137724 0.7434434
vn 0.6337138 -0.2137724 0.7434434
vn 0.6337138 -0.2137724 0.7434434
vn 0.6337139 0.7692701 -0.08142696
vn 0.6337139 0.7692701 -0.08142696
vn 0.6337139 0.7692701 -0.08142696
vn -0.6337139 0.7692701 -0.08142697
vn -0.6337139 0.7692701 -0.08142697
vn -0.6337139 0.7692701 -0.08142697
vn -0.6337138 -0.2137724 0.7434435
vn -0.6337138 -0.2137724 0.7434435
vn -0.6337138 -0.2137724 0.7434435
vn -6.385931E-08 -0.6427875 -0.7660446
vn -6.385931E-08 -0.6427875 -0.7660446
vn -6.385931E-08 -0.6427875 -0.7660446
vn 2.128644E-08 0.2142625 0.2553482
vn 1.776357E-15 0 0
vn -1.475172E-09 9.071791E-16 -7.612134E-16
vn 1.776357E-15 0 0
vn -2.423678E-08 -0.2142625 -0.2553482
vn -1.475172E-09 9.071791E-16 -7.612134E-16
vn -2.423678E-08 -0.2142625 -0.2553482
vn -4.42552E-09 0 0
vn -1.475172E-09 9.071791E-16 -7.612134E-16
vn 0.2892485 -0.6153117 -0.7332988
vn 0.2892485 -0.6153117 -0.7332988
vn 0.2892484 -0.6153117 -0.7332988
vn 0.2892485 -0.6153117 -0.7332988
vn -0.4868599 0.5614627 0.6691242
vn -0.4868599 0.5614628 0.6691242
vn -0.4868599 0.5614628 0.6691242
vn -0.4868599 0.5614627 0.6691242
vn 0.8399954 -0.4217621 -0.3413569
vn 0.8572049 -0.4515817 -0.2475349
vn 0.8073239 -0.3793149 -0.4520492
vn 0.8399954 -0.4217621 -0.3413569
vn -0.7888374 0.3950588 0.4708121
vn -0.7888374 0.3950588 0.4708121
vn -0.7888374 0.3950589 0.4708121
vn -0.7888374 0.3950588 0.4708121
vn -6.828483E-08 -0.6427875 -0.7660446
vn -6.828483E-08 -0.6427875 -0.7660446
vn -6.828483E-08 -0.6427875 -0.7660446
vn -0.4317502 0.5797906 0.6909666
vn -0.4317502 0.5797907 0.6909665
vn -0.4317502 0.5797907 0.6909665
vn -0.4317502 0.5797907 0.6909665
vn 0.9813289 0.123632 0.1473387
vn 0.9813289 0.1236321 0.1473387
vn 0.9813289 0.123632 0.1473387
vn 0.9813288 0.123632 0.1473388
vn 0.9994709 -0.02090729 -0.0249163
vn 0.9994709 -0.02090729 -0.0249163
vn 0.9994709 -0.02090729 -0.0249163
vn 0.9994709 -0.02090728 -0.02491629
vn 0.16695 -0.7785635 -0.6049519
vn 0.06618227 -0.6413791 -0.7643644
vn 0.1795311 -0.7646782 -0.618899
vn 0.2921829 -0.6147379 -0.7326163
vn 0.2459741 -0.8227441 -0.5124344
vn -0.9990654 0.02778453 0.03311225
vn -0.9990654 0.02778453 0.03311225
vn -0.9990654 0.02778453 0.03311225
vn -0.9990654 0.02778453 0.03311225
vn -0.9968685 -0.05082987 -0.0605766
vn -0.9968686 -0.05082987 -0.06057661
vn -0.9968686 -0.05082986 -0.06057662
vn -0.9968686 -0.05082987 -0.06057661
vn -0.9968685 -0.05082983 -0.06057665
vn -0.9968685 -0.05082983 -0.06057665
vn -0.9968685 -0.05082983 -0.06057665
vn -0.9968684 -0.05082983 -0.06057665
vn -0.9990654 0.02778449 0.03311228
vn -0.9990654 0.02778449 0.03311228
vn -0.9990654 0.02778449 0.03311228
vn -0.9990654 0.02778449 0.03311228
vn -0.9900692 -0.09036319 -0.1076906
vn -0.9900693 -0.09036319 -0.1076906
vn -0.9900692 -0.09036319 -0.1076906
vn 1 0 0
vn 0.1448437 0.4954367 -0.8564829
vn 0.1448437 0.4954367 -0.8564829
vn 0.1448437 0.4954367 -0.8564829
vn 0.1675628 0.5190918 -0.8381328
vn 0.1675628 0.5190918 -0.8381328
vn 0.1675628 0.5190918 -0.8381328
vn 0 0.7660446 -0.6427876
vn 0 0.7660446 -0.6427876
vn 0 0.7660446 -0.6427876
vn 0 0.7660446 -0.6427876
vn 0 0.7660446 -0.6427876
vn 0 0.7660446 -0.6427876
vn 0 0.7660446 -0.6427876
vn 0 0.7660446 -0.6427876
vn 0 0.7660446 -0.6427876
vn -0.08032068 0.7848642 -0.6144403
vn -0.08032068 0.7848642 -0.6144403
vn -0.08032068 0.7848642 -0.6144403
vn -0.1558266 0.7610028 -0.6297562
vn -0.1558266 0.7610028 -0.6297562
vn -0.1558266 0.7610028 -0.6297562
vn -0.3576929 0.8936064 -0.2711525
vn -0.3576929 0.8936064 -0.2711525
vn -0.3576929 0.8936064 -0.2711525
vn 0.05081536 0.9279855 -0.3691351
vn 0.05081536 0.9279855 -0.3691351
vn 0.05081536 0.9279855 -0.3691351
vn -0.3813465 0.4567494 -0.8037133
vn -0.3813465 0.4567494 -0.8037133
vn -0.3813465 0.4567494 -0.8037133
vn -0.6915165 0.4221253 -0.5861869
vn -0.6915165 0.4221253 -0.5861869
vn -0.6915165 0.4221253 -0.5861869
vn -0.6944226 -0.4402314 0.5691869
vn -0.6944226 -0.4402314 0.5691869
vn -0.6944226 -0.4402314 0.5691869
vn 0.4194627 -0.7474211 0.5151821
vn 0.4194627 -0.7474211 0.5151821
vn 0.4194627 -0.7474211 0.5151821
vn 0.4750609 -0.6667337 0.5742677
vn 0.4750609 -0.6667337 0.5742677
vn 0.4750609 -0.6667337 0.5742677
vn 0.3982379 -0.6819563 0.6134676
vn 0.3982379 -0.6819563 0.6134676
vn 0.3982379 -0.6819563 0.6134676
vn 0.4238806 -0.7054664 0.5680162
vn 0.4238806 -0.7054664 0.5680162
vn 0.4238806 -0.7054664 0.5680162
vn 0.2315654 -0.8041319 0.5474939
vn 0.2315654 -0.8041319 0.5474939
vn 0.2315654 -0.8041319 0.5474939
vn 0 -0.7660446 0.6427876
vn 0 -0.7660446 0.6427876
vn 0 -0.7660446 0.6427876
vn 0 -0.7660445 0.6427875
vn 0 -0.7660445 0.6427875
vn 0 -0.7660445 0.6427875
vn 0 -0.7660446 0.6427876
vn 0 -0.7660446 0.6427876
vn 0 -0.7660446 0.6427876
vn -0.1968772 -0.5488805 0.8123852
vn -0.1968772 -0.5488805 0.8123852
vn -0.1968772 -0.5488805 0.8123852
vn -0.1448437 -0.4954365 0.856483
vn -0.1448437 -0.4954365 0.856483
vn -0.1448437 -0.4954365 0.856483

vt 0.5 1
vt 1 0
vt 0 0
vt 0.5 1
vt 1 0
vt 1 0
vt 0.5 1
vt 1 0
vt 0 0
vt 0.5 1
vt 0 0
vt 1 0
vt 0 0
vt 1 0
vt 0.5 0.5
vt 1 0
vt 1 0
vt 0.5 0.5
vt 1 0
vt 1 0
vt 0.5 0.5
vt 1 0
vt 0 0
vt 0.5 0.5
vt 0.5 1
vt 1 0
vt 1 0
vt 0.5 1
vt 1 0
vt 0 0
vt 0.5 1
vt 0 0
vt 1 0
vt 0.5 1
vt 1 0
vt 0 0
vt 1 0
vt 1 1
vt 0.5 0.5
vt 1 1
vt 1 0
vt 0.5 0.5
vt 1 0
vt 0 0
vt 0.5 0.5
vt 0 0
vt 1 0
vt 0.5 0.5
vt 0.1358881 0
vt 0.006892958 0
vt 0.1358881 0.1
vt 0.006892958 0.1
vt 0.07120542 0
vt 0.1358881 0
vt 0.07120542 0.1
vt -0.0317709 0.1
vt 0.006892958 0
vt 0.03976236 0.3516158
vt -0.2019788 0.1
vt -0.3113683 0.1
vt 0.3411491 0
vt 0.1966915 0
vt 0.3411491 0.1
vt 0.1966915 0.1
vt 1 0
vt 0 0
vt 1 0
vt 0.2153592 0
vt 0.3411491 0
vt 0.1018737 0.1
vt 0.2153592 0.1
vt -0.1437609 0
vt 0.03579914 0
vt -0.2793739 0.1
vt -0.1437609 0.1
vt 0.03579914 0
vt 0.2153592 0
vt 0.2153592 0.1
vt -0.2793739 0.1
vt 0.03976236 0.3516158
vt -0.1216125 0
vt -0.1216125 0.05
vt -0.1216125 0.1
vt -0.06296457 0.1
vt 0.3434409 0
vt 0.2492595 0
vt 0.2492595 0.05
vt 0.3434409 0.05
vt 0.2492595 0
vt 0.155078 0
vt 0.155078 0.05
vt 0.2492595 0.05
vt 0.155078 0.05
vt 0.155078 0.1
vt 0.2492595 0.1
vt 0.2492595 0.05
vt 0.2492595 0.1
vt 0.3434409 0.1
vt 0.3434409 0.05
vt 0.2492595 0.05
vt 0.1307415 0
vt 0 0
vt 0.1307415 0.1
vt 0.1307415 0.05
vt 0.05215665 0.3015175
vt 0.1456147 0.2588905
vt 0.01705561 0.2663065
vt 0.05215665 0.3015175
vt 0.01705561 0.2663065
vt -0.04531956 0.3558378
vt -0.03749648 0.414315
vt 0.05215665 0.3015175
vt -0.04531956 0.3558378
vt -0.03749648 0.414315
vt -0.04531956 0.3558378
vt -0.103747 0.3595608
vt -0.03749648 0.414315
vt -0.103747 0.3595608
vt 0.2153592 0.1
vt -0.103747 0.3595608
vt -0.2793739 0.1
vt 0.2153592 0.1
vt -0.2793739 0.1
vt -0.103747 0.3595608
vt -0.1134754 0.2659626
vt -0.1134754 0.2659626
vt -0.1232038 0.1723645
vt -0.2793739 0.1
vt -0.2793739 0.1
vt -0.1232038 0.1723645
vt -0.1437609 0.1
vt -0.1232038 0.1723645
vt 0 0
vt -0.1437609 0.1
vt -0.1437609 0.1
vt 0 0
vt 1 0
vt 1 0
vt 0 0
vt 0.1680387 0.1594632
vt 0.1680387 0.1594632
vt 0 0
vt 0.1177352 0.1681324
vt 0.1680387 0.1594632
vt 0.1177352 0.1681324
vt 0.1916989 0.07973159
vt 0.1916989 0.07973159
vt 0.1177352 0.1681324
vt 0.1079957 0.2618077
vt 0.1079957 0.2618077
vt 0.09825626 0.3554831
vt 0.1916989 0.07973159
vt 0.2153592 0
vt 0.1916989 0.07973159
vt 0.09825626 0.3554831
vt 0.09825626 0.3554831
vt 0.3411491 0
vt 0.2153592 0
vt 0.09825626 0.3554831
vt 0.03976236 0.3516158
vt 0.3411491 0
vt 0.03976236 0.3516158
vt -0.05782472 0.297003
vt 0.3411491 0
vt 0.03976236 0.3516158
vt 0.006892958 0
vt -0.05782472 0.297003
vt 0.006892958 0
vt 0.1358881 0
vt -0.05782472 0.297003

g pb-MergedObject-130182_0
usemtl Sparkle_light
f 51/51/51 52/52/52 50/50/50 49/49/49
f 55/55/55 56/56/56 54/54/54 53/53/53
f 59/59/59 60/60/60 58/58/58 57/57/57
f 63/63/63 64/64/64 62/62/62 61/61/61
f 68/68/68 71/71/71 70/70/70 69/69/69
f 73/73/73 72/72/72 75/75/75 74/74/74
f 77/77/77 76/76/76 79/79/79 78/78/78
f 85/85/85 88/88/88 87/87/87 86/86/86
f 89/89/89 92/92/92 91/91/91 90/90/90
f 96/96/96 95/95/95 94/94/94 93/93/93
f 99/99/99 98/98/98 97/97/97 100/100/100
f 104/104/104 103/103/103 102/102/102 101/101/101

g pb-MergedObject-130182_1
usemtl Sparkle_light
f 3/3/3 2/2/2 1/1/1
f 6/6/6 5/5/5 4/4/4
f 9/9/9 8/8/8 7/7/7
f 12/12/12 11/11/11 10/10/10
f 15/15/15 14/14/14 13/13/13
f 18/18/18 17/17/17 16/16/16
f 21/21/21 20/20/20 19/19/19
f 24/24/24 23/23/23 22/22/22
f 27/27/27 26/26/26 25/25/25
f 30/30/30 29/29/29 28/28/28
f 33/33/33 32/32/32 31/31/31
f 36/36/36 35/35/35 34/34/34
f 39/39/39 38/38/38 37/37/37
f 42/42/42 41/41/41 40/40/40
f 45/45/45 44/44/44 43/43/43
f 48/48/48 47/47/47 46/46/46
f 66/66/66 67/67/67 65/65/65
f 80/80/80 82/82/82 81/81/81
f 84/84/84 82/82/82 80/80/80
f 84/84/84 83/83/83 82/82/82
f 107/107/107 106/106/106 105/105/105
f 110/110/110 109/109/109 108/108/108
f 113/113/113 112/112/112 111/111/111
f 116/116/116 115/115/115 114/114/114
f 119/119/119 118/118/118 117/117/117
f 122/122/122 121/121/121 120/120/120
f 125/125/125 124/124/124 123/123/123
f 128/128/128 127/127/127 126/126/126
f 131/131/131 130/130/130 129/129/129
f 134/134/134 133/133/133 132/132/132
f 137/137/137 136/136/136 135/135/135
f 140/140/140 139/139/139 138/138/138
f 143/143/143 142/142/142 141/141/141
f 146/146/146 145/145/145 144/144/144
f 149/149/149 148/148/148 147/147/147
f 152/152/152 151/151/151 150/150/150
f 155/155/155 154/154/154 153/153/153
f 158/158/158 157/157/157 156/156/156
f 161/161/161 160/160/160 159/159/159
f 164/164/164 163/163/163 162/162/162
f 167/167/167 166/166/166 165/165/165
f 170/170/170 169/169/169 168/168/168

